<?xml version="1.0" encoding="UTF-8" standalone="no"?>
<!-- Created with Inkscape (http://www.inkscape.org/) -->

<svg
   version="1.1"
   id="svg1"
   width="124.02734"
   height="131.22533"
   viewBox="0 0 124.02733 131.22533"
   sodipodi:docname="AND.svg"
   inkscape:version="1.3 (0e150ed6c4, 2023-07-21)"
   xmlns:inkscape="http://www.inkscape.org/namespaces/inkscape"
   xmlns:sodipodi="http://sodipodi.sourceforge.net/DTD/sodipodi-0.dtd"
   xmlns="http://www.w3.org/2000/svg"
   xmlns:svg="http://www.w3.org/2000/svg">
  <defs
     id="defs1">
    <clipPath
       clipPathUnits="userSpaceOnUse"
       id="clipPath144">
      <path
         d="m 323.433,285.109 h 46.545 v -15.817 h -46.545 z"
         transform="matrix(1,0,0,-1,-330.00951,283.46461)"
         id="path144" />
    </clipPath>
  </defs>
  <sodipodi:namedview
     id="namedview1"
     pagecolor="#ffffff"
     bordercolor="#000000"
     borderopacity="0.25"
     inkscape:showpageshadow="2"
     inkscape:pageopacity="0.0"
     inkscape:pagecheckerboard="0"
     inkscape:deskcolor="#d1d1d1"
     inkscape:clip-to-page="false"
     inkscape:zoom="1.7566288"
     inkscape:cx="-124.95526"
     inkscape:cy="372.01941"
     inkscape:window-width="3720"
     inkscape:window-height="2120"
     inkscape:window-x="3948"
     inkscape:window-y="-12"
     inkscape:window-maximized="1"
     inkscape:current-layer="g1">
    <inkscape:page
       x="0"
       y="0"
       inkscape:label="1"
       id="page1"
       width="124.02733"
       height="131.22533"
       margin="0"
       bleed="0" />
  </sodipodi:namedview>
  <g
     id="g1"
     inkscape:groupmode="layer"
     inkscape:label="1"
     transform="translate(-533,-156.15262)">
    <path
       id="path172"
       d="m 604.082,158.23196 v 5.06533 c 0,3.70933 -3.01067,6.72 -6.72,6.72 -3.70933,0 -6.72,-3.01067 -6.72,-6.72 m -0.0147,0 v -5.06533"
       style="fill:none;stroke:#000000;stroke-width:1.28533;stroke-linecap:round;stroke-linejoin:round;stroke-miterlimit:10;stroke-dasharray:none;stroke-opacity:1" />
    <path
       id="path173"
       d="m 576.84375,170.76563 h -0.73438 c -0.29687,1.21875 -0.79687,1.34375 -2.01562,1.42188 v 0.75 h 1.75 v 5.32812 h 1 z m -2.42188,19.01172 c 0.0312,-0.51563 0.0937,-1.84375 1.51563,-1.84375 1.09375,0 1.48437,0.75 1.48437,1.35937 0,0.96875 -0.57812,1.28125 -1.375,1.75 l -1,0.5625 c -1,0.59375 -1.70312,1.42188 -1.75,2.98438 h 5.125 v -0.89063 h -4.07812 c 0.0469,-0.28125 0.26562,-0.875 1.29687,-1.4375 l 0.78125,-0.42187 c 1.125,-0.59375 2,-1.17188 2,-2.51563 0,-1.39062 -1.04687,-2.23437 -2.34375,-2.23437 -0.8125,0 -2.59375,0.25 -2.59375,2.6875 z m 0.98438,17.76562 c 0.14062,0 0.28125,-0.0156 0.42187,-0.0156 0.64063,0 1.75,0.125 1.75,1.375 0,0.85937 -0.67187,1.45312 -1.625,1.45312 -1.40625,0 -1.57812,-0.95312 -1.60937,-1.65625 H 573.375 c 0.0625,0.85938 0.29687,1.73438 1.125,2.17188 0.35937,0.1875 0.82812,0.32812 1.39062,0.32812 1.90625,0 2.70313,-1.1875 2.70313,-2.40625 0,-1.01562 -0.53125,-1.51562 -1.25,-1.75 v -0.0312 c 0.40625,-0.125 0.95312,-0.57813 0.95312,-1.54688 0,-1.14062 -0.85937,-1.96875 -2.3125,-1.96875 -1.96875,0 -2.42187,1.35938 -2.42187,2.45313 h 0.92187 c 0.0312,-0.53125 0.125,-1.60938 1.45313,-1.60938 1.125,0 1.39062,0.73438 1.39062,1.1875 0,0.9375 -0.70312,1.21875 -1.4375,1.21875 -0.15625,0 -0.32812,-0.0156 -0.48437,-0.0156 z m 3.1875,18.02735 v -0.8125 H 577.5 v -4.85938 h -0.78125 l -3.4375,4.75 v 0.92188 h 3.28125 v 1.82812 H 577.5 v -1.82812 z m -2.0625,-4.21875 h 0.0312 v 3.40625 h -2.42188 z m -1.625,15.95312 h 3.17187 v -0.92187 h -3.875 l -0.5625,4.03125 0.8125,0.0312 c 0.34375,-0.45313 0.82813,-0.70313 1.375,-0.70313 0.9375,0 1.67188,0.57813 1.67188,1.65625 0,0.9375 -0.60938,1.71875 -1.57813,1.71875 -0.84375,0 -1.5,-0.39062 -1.59375,-1.26562 h -0.96875 c 0.17188,1.6875 1.4375,2.07812 2.42188,2.07812 2.34375,0 2.71875,-1.79687 2.71875,-2.64062 0,-1.54688 -1.25,-2.39063 -2.46875,-2.39063 -0.67188,0 -1.125,0.21875 -1.45313,0.46875 z m 3.48437,17.32422 c -0.10937,-1.53125 -1.32812,-2 -2.1875,-2 -2.25,0 -2.78125,2.35937 -2.78125,4.01562 0,0.96875 0.125,1.89063 0.57813,2.59375 0.53125,0.84375 1.35937,1.09375 1.92187,1.09375 1.0625,0 1.51563,-0.28125 1.90625,-0.71875 0.51563,-0.5625 0.71875,-1.10937 0.71875,-1.89062 0,-1.78125 -1.4375,-2.375 -2.34375,-2.375 -1.03125,0 -1.5625,0.51562 -1.79687,0.92187 l -0.0156,-0.0312 c 0,-0.78125 0.3125,-2.76562 1.78125,-2.76562 0.8125,0 1.17188,0.48437 1.29688,1.15625 z m -3.875,3.1875 c 0,-0.875 0.5,-1.625 1.54688,-1.625 1.15625,0 1.51562,0.92187 1.51562,1.57812 0,1.01563 -0.57812,1.71875 -1.48437,1.71875 -1.09375,0 -1.57813,-0.85937 -1.57813,-1.67187 z m -1.10937,12.21875 h 4.14062 c -1.45312,1.67187 -2.8125,4.35937 -3.0625,6.42187 h 1.03125 c 0.54688,-3.34375 2.32813,-5.73437 3.07813,-6.51562 v -0.82813 h -5.1875 z m 41.07812,-99.26953 h -0.73438 c -0.29687,1.21875 -0.79687,1.34375 -2.01562,1.42188 v 0.75 h 1.75 v 5.32812 h 1 z m 7.68359,5.67188 v -0.8125 h -1.09375 v -4.85938 h -0.78125 l -3.4375,4.75 v 0.92188 h 3.28125 v 1.82812 h 0.9375 v -1.82812 z m -2.0625,-4.21875 h 0.0313 v 3.40625 h -2.42188 z m -5.62109,14.87109 h -0.73438 c -0.29687,1.21875 -0.79687,1.34375 -2.01562,1.42187 v 0.75 h 1.75 v 5.32813 h 1 z m 4.49609,4.04687 c 0.14063,0 0.28125,-0.0156 0.42188,-0.0156 0.64062,0 1.75,0.125 1.75,1.375 0,0.85937 -0.67188,1.45312 -1.625,1.45312 -1.40625,0 -1.57813,-0.95312 -1.60938,-1.65625 h -0.96875 c 0.0625,0.85938 0.29688,1.73438 1.125,2.17188 0.35938,0.1875 0.82813,0.32812 1.39063,0.32812 1.90625,0 2.70312,-1.1875 2.70312,-2.40625 0,-1.01562 -0.53125,-1.51562 -1.25,-1.75 v -0.0312 c 0.40625,-0.125 0.95313,-0.57812 0.95313,-1.54687 0,-1.14063 -0.85938,-1.96875 -2.3125,-1.96875 -1.96875,0 -2.42188,1.35937 -2.42188,2.45312 h 0.92188 c 0.0312,-0.53125 0.125,-1.60937 1.45312,-1.60937 1.125,0 1.39063,0.73437 1.39063,1.1875 0,0.9375 -0.70313,1.21875 -1.4375,1.21875 -0.15625,0 -0.32813,-0.0156 -0.48438,-0.0156 z m -4.49609,12.35938 h -0.73438 c -0.29687,1.21875 -0.79687,1.34375 -2.01562,1.42187 v 0.75 h 1.75 v 5.32813 h 1 z m 3.51172,2.6875 c 0.0312,-0.51563 0.0937,-1.84375 1.51562,-1.84375 1.09375,0 1.48438,0.75 1.48438,1.35937 0,0.96875 -0.57813,1.28125 -1.375,1.75 l -1,0.5625 c -1,0.59375 -1.70313,1.42188 -1.75,2.98438 h 5.125 v -0.89063 h -4.07813 c 0.0469,-0.28125 0.26563,-0.875 1.29688,-1.4375 l 0.78125,-0.42187 c 1.125,-0.59375 2,-1.17188 2,-2.51563 0,-1.39062 -1.04688,-2.23437 -2.34375,-2.23437 -0.8125,0 -2.59375,0.25 -2.59375,2.6875 z m -2.75391,13.71484 h -0.73437 c -0.29688,1.21875 -0.79688,1.34375 -2.01563,1.42188 v 0.75 h 1.75 v 5.32812 h 1 z m 5.14063,0 h -0.73438 c -0.29687,1.21875 -0.79687,1.34375 -2.01562,1.42188 v 0.75 h 1.75 v 5.32812 h 1 z m -5.89844,16.32813 h -0.73438 c -0.29687,1.21875 -0.79687,1.34375 -2.01562,1.42187 v 0.75 h 1.75 v 5.32813 h 1 z m 6.63672,3.84375 c 0,1.89062 -0.48438,3.01562 -1.5625,3.01562 -1.07813,0 -1.57813,-1.125 -1.57813,-3.01562 0,-1.875 0.5,-3 1.57813,-3 1.07812,0 1.5625,1.125 1.5625,3 z m 1,0 c 0,-1.54688 -0.40625,-3.84375 -2.5625,-3.84375 -2.15625,0 -2.57813,2.29687 -2.57813,3.84375 0,1.5625 0.42188,3.85937 2.57813,3.85937 2.15625,0 2.5625,-2.29687 2.5625,-3.85937 z m -2.75391,17.54296 c 0.6875,0 1.4375,-0.3125 1.71875,-0.89062 l 0.0156,0.0156 c -0.23438,1.95312 -0.78125,2.8125 -1.79688,2.8125 -0.78124,0 -1.21874,-0.46875 -1.28124,-1.21875 h -0.9375 c 0,0.71875 0.46874,2 2.23437,2 2.57813,0 2.71875,-3.42188 2.71875,-4.21875 0,-1.21875 -0.23438,-3.48438 -2.625,-3.48438 -1.57812,0 -2.40625,1.20313 -2.40625,2.5625 0,1.5 0.96875,2.42188 2.35937,2.42188 z m 0.14063,-0.82812 c -0.64063,0 -1.53125,-0.1875 -1.53125,-1.625 0,-1 0.57812,-1.6875 1.45312,-1.6875 1.07813,0 1.51563,0.75 1.51563,1.59375 0,1.48437 -0.95313,1.71875 -1.4375,1.71875 z m 2.29687,14.09375 c 0,-0.875 -0.65625,-1.92188 -2.3125,-1.92188 -1.79687,0 -2.28125,1.28125 -2.28125,2.0625 0,0.70313 0.375,1.21875 1.01563,1.45313 -0.78125,0.32812 -1.26563,0.90625 -1.26563,1.82812 0,0.35938 0,1.17188 0.76563,1.78125 0.59375,0.46875 1.39062,0.57813 1.8125,0.57813 1.76562,0 2.53125,-1.15625 2.53125,-2.375 0,-0.5625 -0.21875,-1.39063 -1.21875,-1.8125 0.32812,-0.17188 0.95312,-0.51563 0.95312,-1.59375 z m -2.29687,2.0625 c 0.85937,0 1.5625,0.4375 1.5625,1.45312 0,1.17188 -0.82813,1.42188 -1.5,1.42188 -1.3125,0 -1.60938,-0.89063 -1.60938,-1.5 0,-0.6875 0.5,-1.375 1.54688,-1.375 z m 0,-0.8125 c -0.6875,0 -1.32813,-0.4375 -1.32813,-1.15625 0,-0.48438 0.25,-1.17188 1.25,-1.17188 1.10938,0 1.40625,0.65625 1.40625,1.125 0,0.67188 -0.53125,1.20313 -1.32812,1.20313 z m 0,0"
       style="fill:#000000;fill-opacity:1;fill-rule:nonzero;stroke:none;stroke-width:1.33333"
       aria-label="1&#10;2&#10;3&#10;4&#10;5&#10;6&#10;7&#10;14&#10;13&#10;12&#10;11&#10;10&#10;9&#10;8" />
    <path
       id="path174"
       d="m 548.90625,169.44922 h -0.82813 c -0.34375,1.375 -0.90625,1.51563 -2.26562,1.60938 v 0.84375 h 1.96875 v 5.98437 h 1.125 z m 8.07812,5.92188 0.85938,2.51562 h 1.26562 L 556,169.27735 h -1.32813 l -3.23437,8.60937 h 1.20312 l 0.89063,-2.51562 z m -3.09375,-1.03125 1.39063,-3.78125 h 0.0156 l 1.26563,3.78125 z m -4.98437,11.89062 h -0.82813 c -0.34375,1.375 -0.90625,1.51563 -2.26562,1.60938 v 0.84375 h 1.96875 v 5.98437 h 1.125 z m 4.40625,0.8125 h 2.10937 c 1.29688,0 1.79688,0.46875 1.79688,1.26563 0,1.0625 -0.6875,1.39062 -1.79688,1.39062 h -2.10937 z m -1.15625,7.625 h 3.70312 c 1.90625,0 2.9375,-1.15625 2.9375,-2.54687 0,-1.46875 -1,-1.875 -1.5625,-2.09375 0.9375,-0.45313 1.14062,-1.23438 1.14062,-1.79688 0,-1.1875 -0.82812,-2.17187 -2.42187,-2.17187 h -3.79687 z m 1.15625,-4.01562 h 2.29687 c 0.95313,0 2.01563,0.23437 2.01563,1.45312 0,0.95313 -0.60938,1.5625 -1.82813,1.5625 h -2.48437 z m -4.40625,12.35937 h -0.82813 c -0.34375,1.375 -0.90625,1.51562 -2.26562,1.60938 v 0.84374 h 1.96875 v 5.98438 h 1.125 z m 6.9375,4.96875 3.26562,-5.14063 h -1.375 l -2.46875,4.14063 -2.46875,-4.14063 h -1.35937 l 3.25,5.14063 v 3.46875 h 1.15625 z m -9.67188,14.76562 c 0.0469,-0.59375 0.10938,-2.07812 1.70313,-2.07812 1.25,0 1.67187,0.84375 1.67187,1.51562 0,1.10938 -0.64062,1.45313 -1.54687,1.96875 l -1.10938,0.65625 c -1.14062,0.65625 -1.92187,1.59375 -1.98437,3.34375 h 5.76562 v -1 h -4.57812 c 0.0469,-0.3125 0.29687,-0.98437 1.45312,-1.60937 l 0.875,-0.48438 c 1.26563,-0.67187 2.25,-1.3125 2.25,-2.82812 0,-1.5625 -1.17187,-2.51563 -2.64062,-2.51563 -0.90625,0 -2.90625,0.28125 -2.90625,3.03125 z m 10.8125,2.89063 0.85938,2.51562 h 1.26562 L 556,219.54297 h -1.32813 l -3.23437,8.60937 h 1.20312 l 0.89063,-2.51562 z m -3.09375,-1.03125 1.39063,-3.78125 h 0.0156 l 1.26563,3.78125 z m -7.71875,14.92187 c 0.0469,-0.59375 0.10938,-2.07812 1.70313,-2.07812 1.25,0 1.67187,0.84375 1.67187,1.51562 0,1.10938 -0.64062,1.45313 -1.54687,1.96875 l -1.10938,0.65625 c -1.14062,0.65625 -1.92187,1.59375 -1.98437,3.34375 h 5.76562 v -1 h -4.57812 c 0.0469,-0.3125 0.29687,-0.98437 1.45312,-1.60937 l 0.875,-0.48438 c 1.26563,-0.67187 2.25,-1.3125 2.25,-2.82812 0,-1.5625 -1.17187,-2.51563 -2.64062,-2.51563 -0.90625,0 -2.90625,0.28125 -2.90625,3.03125 z m 7.14063,-2.21875 h 2.10937 c 1.29688,0 1.79688,0.46875 1.79688,1.26563 0,1.0625 -0.6875,1.39062 -1.79688,1.39062 h -2.10937 z m -1.15625,7.625 h 3.70312 c 1.90625,0 2.9375,-1.15625 2.9375,-2.54687 0,-1.46875 -1,-1.875 -1.5625,-2.09375 0.9375,-0.45313 1.14062,-1.23438 1.14062,-1.79688 0,-1.1875 -0.82812,-2.17187 -2.42187,-2.17187 h -3.79687 z m 1.15625,-4.01562 h 2.29687 c 0.95313,0 2.01563,0.23437 2.01563,1.45312 0,0.95313 -0.60938,1.5625 -1.82813,1.5625 h -2.48437 z m -7.14063,15.31641 c 0.0469,-0.59376 0.10938,-2.07813 1.70313,-2.07813 1.25,0 1.67187,0.84375 1.67187,1.51563 0,1.10937 -0.64062,1.45312 -1.54687,1.96874 l -1.10938,0.65626 c -1.14062,0.65624 -1.92187,1.59374 -1.98437,3.34374 h 5.76562 v -1 h -4.57812 c 0.0469,-0.3125 0.29687,-0.98437 1.45312,-1.60937 l 0.875,-0.48437 c 1.26563,-0.67188 2.25,-1.3125 2.25,-2.82813 0,-1.5625 -1.17187,-2.51563 -2.64062,-2.51563 -0.90625,0 -2.90625,0.28126 -2.90625,3.03126 z m 9.67188,1.9375 3.26562,-5.14063 h -1.375 l -2.46875,4.14063 -2.46875,-4.14063 h -1.35937 l 3.25,5.14063 v 3.46874 h 1.15625 z m -18.75,16.63671 h 2.6875 c 0,0.92188 -0.20313,1.6875 -0.95313,2.29688 -0.64062,0.5 -1.32812,0.54687 -1.76562,0.54687 -2.28125,0 -2.85938,-1.79687 -2.85938,-3.54687 0,-2.26563 1.26563,-3.5 2.8125,-3.5 0.95313,0 2.20313,0.3125 2.57813,1.8125 h 1.125 c -0.25,-1.9375 -2.03125,-2.84375 -3.64063,-2.84375 -2.8125,0 -4.07812,2.35937 -4.07812,4.46875 0,0.90625 0.0312,2.39062 1.35937,3.625 0.4375,0.4375 1.15625,0.98437 2.64063,0.98437 1.17187,0 2.25,-0.53125 2.84375,-1.34375 l 0.26562,1.10938 h 0.76563 v -4.60938 h -3.78125 z m 11.28906,1.95313 h -0.0312 l -4.29688,-6.95313 h -1.39062 v 8.60938 h 1.14062 v -6.95313 h 0.0156 l 4.375,6.95313 h 1.3125 v -8.60938 h -1.125 z m 3.00781,1.65625 h 3.45313 c 2.82812,0 3.67187,-2.5 3.67187,-4.42188 0,-2.48437 -1.39062,-4.1875 -3.625,-4.1875 h -3.5 z m 1.17188,-7.625 h 2.17187 c 1.57813,0 2.57813,1.09375 2.57813,3.26562 0,2.17188 -0.98438,3.35938 -2.5,3.35938 h -2.25 z m 86.98046,-94.17578 h -0.0156 l -2.46875,-7.34375 h -1.29688 l 3.15625,8.60937 h 1.23438 l 3.14062,-8.60937 h -1.3125 z m 0,0"
       style="fill:#000000;fill-opacity:1;fill-rule:nonzero;stroke:none;stroke-width:1.33333"
       aria-label="1A&#10;1B&#10;1Y&#10;2A&#10;2B&#10;2Y&#10;GND&#10;V" />
    <path
       id="path175"
       d="m 650.00781,175.56641 c -0.14063,-1.15625 -1.0625,-2.26563 -2.82813,-2.26563 -2.01562,0 -3.21875,1.46875 -3.21875,3.59375 0,2.65625 1.53125,3.67188 3.09375,3.67188 0.51563,0 2.64063,-0.125 3.01563,-2.71875 h -0.90625 c -0.3125,1.59375 -1.35938,1.89062 -1.95313,1.89062 -1.71875,0 -2.29687,-1.25 -2.29687,-2.875 0,-1.8125 1.01562,-2.73437 2.26562,-2.73437 0.65625,0 1.67188,0.21875 1.92188,1.4375 z m 6.95703,0 c -0.14063,-1.15625 -1.0625,-2.26563 -2.82813,-2.26563 -2.01562,0 -3.21875,1.46875 -3.21875,3.59375 0,2.65625 1.53125,3.67188 3.09375,3.67188 0.51563,0 2.64063,-0.125 3.01563,-2.71875 h -0.90625 c -0.3125,1.59375 -1.35938,1.89062 -1.95313,1.89062 -1.71875,0 -2.29687,-1.25 -2.29687,-2.875 0,-1.8125 1.01562,-2.73437 2.26562,-2.73437 0.65625,0 1.67188,0.21875 1.92188,1.4375 z m 0,0"
       style="fill:#000000;fill-opacity:1;fill-rule:nonzero;stroke:none;stroke-width:1.33333"
       aria-label="CC" />
    <path
       id="path176"
       d="m 641.80859,192.6211 v -0.92188 h -1.23438 v -5.46875 h -0.89062 l -3.85938,5.35938 v 1.03125 h 3.6875 v 2.04687 h 1.0625 v -2.04687 z m -2.32813,-4.75 h 0.0312 v 3.82812 h -2.71875 z m 4.76563,-0.82813 h 2.10937 c 1.29688,0 1.79688,0.46875 1.79688,1.26563 0,1.0625 -0.6875,1.39062 -1.79688,1.39062 h -2.10937 z m -1.15625,7.625 h 3.70312 c 1.90625,0 2.9375,-1.15625 2.9375,-2.54687 0,-1.46875 -1,-1.875 -1.5625,-2.09375 0.9375,-0.45313 1.14063,-1.23438 1.14063,-1.79688 0,-1.1875 -0.82813,-2.17187 -2.42188,-2.17187 h -3.79687 z m 1.15625,-4.01562 h 2.29687 c 0.95313,0 2.01563,0.23437 2.01563,1.45312 0,0.95313 -0.60938,1.5625 -1.82813,1.5625 h -2.48437 z m -2.4375,18.75 v -0.92188 h -1.23438 v -5.46875 h -0.89062 l -3.85938,5.35938 v 1.03125 h 3.6875 v 2.04687 h 1.0625 v -2.04687 z m -2.32813,-4.75 h 0.0312 v 3.82812 h -2.71875 z m 8.4375,4.28125 0.85938,2.51562 h 1.26562 l -3.10937,-8.60937 h -1.32813 l -3.23437,8.60937 h 1.20312 l 0.89063,-2.51562 z m -3.09375,-1.03125 1.39063,-3.78125 h 0.0156 l 1.26563,3.78125 z m -3.01562,18.20312 v -0.92187 h -1.23438 v -5.46875 h -0.89062 l -3.85938,5.35937 v 1.03125 h 3.6875 v 2.04688 h 1.0625 v -2.04688 z m -2.32813,-4.75 h 0.0312 v 3.82813 h -2.71875 z m 7.29688,3.32813 3.26562,-5.14063 h -1.375 l -2.46875,4.14063 -2.46875,-4.14063 h -1.35937 l 3.25,5.14063 v 3.46875 h 1.15625 z m -8.5625,16.35937 c 0.15625,0 0.32812,-0.0156 0.48437,-0.0156 0.71875,0 1.96875,0.14062 1.96875,1.54687 0,0.98438 -0.76562,1.64063 -1.84375,1.64063 -1.5625,0 -1.76562,-1.0625 -1.79687,-1.85938 h -1.09375 c 0.0781,0.96875 0.32812,1.9375 1.26562,2.4375 0.40625,0.21875 0.9375,0.375 1.5625,0.375 2.14063,0 3.03125,-1.34375 3.03125,-2.71875 0,-1.125 -0.59375,-1.70312 -1.40625,-1.96875 v -0.0156 c 0.45313,-0.15624 1.07813,-0.67187 1.07813,-1.75 0,-1.28124 -0.96875,-2.21874 -2.59375,-2.21874 -2.23438,0 -2.73438,1.53124 -2.73438,2.76562 h 1.03125 c 0.0469,-0.59375 0.14063,-1.8125 1.64063,-1.8125 1.26562,0 1.5625,0.82812 1.5625,1.32812 0,1.0625 -0.78125,1.375 -1.60938,1.375 -0.17187,0 -0.35937,0 -0.54687,-0.0156 z m 6.03125,-3.73437 h 2.10937 c 1.29688,0 1.79688,0.46875 1.79688,1.26562 0,1.0625 -0.6875,1.39063 -1.79688,1.39063 h -2.10937 z m -1.15625,7.625 h 3.70312 c 1.90625,0 2.9375,-1.15625 2.9375,-2.54688 0,-1.46875 -1,-1.875 -1.5625,-2.09375 0.9375,-0.45312 1.14063,-1.23437 1.14063,-1.79687 0,-1.1875 -0.82813,-2.17188 -2.42188,-2.17188 h -3.79687 z m 1.15625,-4.01563 h 2.29687 c 0.95313,0 2.01563,0.23438 2.01563,1.45313 0,0.95312 -0.60938,1.5625 -1.82813,1.5625 h -2.48437 z M 638.21484,257.75 c 0.15625,0 0.32812,-0.0156 0.48437,-0.0156 0.71875,0 1.96875,0.14062 1.96875,1.54687 0,0.98438 -0.76562,1.64063 -1.84375,1.64063 -1.5625,0 -1.76562,-1.0625 -1.79687,-1.85938 h -1.09375 c 0.0781,0.96875 0.32812,1.9375 1.26562,2.4375 0.40625,0.21875 0.9375,0.375 1.5625,0.375 2.14063,0 3.03125,-1.34375 3.03125,-2.71875 0,-1.125 -0.59375,-1.70312 -1.40625,-1.96875 v -0.0156 c 0.45313,-0.15625 1.07813,-0.67188 1.07813,-1.75 0,-1.28125 -0.96875,-2.21875 -2.59375,-2.21875 -2.23438,0 -2.73438,1.53125 -2.73438,2.76562 h 1.03125 c 0.0469,-0.59375 0.14063,-1.8125 1.64063,-1.8125 1.26562,0 1.5625,0.82813 1.5625,1.32813 0,1.0625 -0.78125,1.375 -1.60938,1.375 -0.17187,0 -0.35937,0 -0.54687,-0.0156 z m 9.70312,1.375 0.85938,2.51563 h 1.26562 l -3.10937,-8.60938 h -1.32813 l -3.23437,8.60938 h 1.20312 l 0.89063,-2.51563 z m -3.09375,-1.03125 1.39063,-3.78125 h 0.0156 l 1.26563,3.78125 z m -6.60937,16.4336 c 0.15625,0 0.32812,-0.0156 0.48437,-0.0156 0.71875,0 1.96875,0.14063 1.96875,1.54688 0,0.98437 -0.76562,1.64062 -1.84375,1.64062 -1.5625,0 -1.76562,-1.0625 -1.79687,-1.85937 h -1.09375 c 0.0781,0.96875 0.32812,1.9375 1.26562,2.4375 0.40625,0.21875 0.9375,0.375 1.5625,0.375 2.14063,0 3.03125,-1.34375 3.03125,-2.71875 0,-1.125 -0.59375,-1.70313 -1.40625,-1.96875 v -0.0156 c 0.45313,-0.15625 1.07813,-0.67188 1.07813,-1.75 0,-1.28125 -0.96875,-2.21875 -2.59375,-2.21875 -2.23438,0 -2.73438,1.53125 -2.73438,2.76562 h 1.03125 c 0.0469,-0.59375 0.14063,-1.8125 1.64063,-1.8125 1.26562,0 1.5625,0.82813 1.5625,1.32813 0,1.0625 -0.78125,1.375 -1.60938,1.375 -0.17187,0 -0.35937,0 -0.54687,-0.0156 z m 8.5625,0.42187 3.26562,-5.14062 h -1.375 l -2.46875,4.14062 -2.46875,-4.14062 h -1.35937 l 3.25,5.14062 v 3.46875 h 1.15625 z m 0,0"
       style="fill:#000000;fill-opacity:1;fill-rule:nonzero;stroke:none;stroke-width:1.33333"
       aria-label="4B&#10;4A&#10;4Y&#10;3B&#10;3A&#10;3Y" />
    <path
       id="path177"
       d="m 568.78067,286.43329 h 56.91999 v -129.336 h -56.91999 z"
       style="fill:none;stroke:#000000;stroke-width:1.88933;stroke-linecap:round;stroke-linejoin:round;stroke-miterlimit:10;stroke-dasharray:none;stroke-opacity:1" />
    <path
       id="path178"
       d="m 625.70066,167.98396 h 4.76267 m 0,0 v 12.32133 m 0,0 h -4.76267 m 0,0 v 4.232 m 0,0 h 4.76267 m 0,0 v 12.32133 m 0,0 h -4.76267 m 0,0 v 4.08267 m 0,0 h 4.76267 m 0,0 v 12.32133 m 0,0 h -4.76267 m 0,0 v 4.00533 m 0,0 h 4.76267 m 0,0 v 12.32134 m 0,0 h -4.76267 m 0,0 z m 0,0 v 4.00666 m 0,0.152 h 4.76267 m 0,0 v 12.24534 m 0,0 h -4.76267 m 0,0 v 4.23333 m 0,0 h 4.76267 m 0,0 v 12.32133 m 0,0 h -4.76267 m 0,0 v 4.15734 m 0,0 h 4.76267 m 0,0 v 12.32133 m 0,0 h -4.76267 m 0,0 v 4.00533 M 568.78067,167.98396 h -4.83734 m 0,0 v 12.32133 m 0,0 h 4.83734 m 0,0 v 4.232 m 0,0 h -4.83734 m 0,0 v 12.32133 m 0,0 h 4.83734 m 0,0 v 4.08267 m 0,0 h -4.83734 m 0,0 v 12.32133 m 0,0 h 4.83734 m 0,0 v 4.00533 m 0,0 h -4.83734 m 0,0 v 12.32134 m 0,0 h 4.83734 m 0,0 z m 0,0 v 4.00666 m 0,0.152 h -4.83734 m 0,0 v 12.24534 m 0,0 h 4.83734 m 0,0 v 4.23333 m 0,0 h -4.83734 m 0,0 v 12.32133 m 0,0 h 4.83734 m 0,0 v 4.15734 m 0,0 h -4.83734 m 0,0 v 12.32133 m 0,0 h 4.83734 m 0,0 v 4.00533"
       style="fill:none;stroke:#000000;stroke-width:1.28533;stroke-linecap:round;stroke-linejoin:round;stroke-miterlimit:10;stroke-dasharray:none;stroke-opacity:1" />
  </g>
</svg>
