<?xml version="1.0" encoding="UTF-8" standalone="no"?>
<!-- Created with Inkscape (http://www.inkscape.org/) -->

<svg
   version="1.1"
   id="svg1"
   width="123.55859"
   height="131.06879"
   viewBox="0 0 123.55859 131.06879"
   sodipodi:docname="OR.svg"
   inkscape:version="1.3 (0e150ed6c4, 2023-07-21)"
   xmlns:inkscape="http://www.inkscape.org/namespaces/inkscape"
   xmlns:sodipodi="http://sodipodi.sourceforge.net/DTD/sodipodi-0.dtd"
   xmlns="http://www.w3.org/2000/svg"
   xmlns:svg="http://www.w3.org/2000/svg">
  <defs
     id="defs1">
    <clipPath
       clipPathUnits="userSpaceOnUse"
       id="clipPath1">
      <path
         d="M 0,0 H 108.96001 V 37.92 H 0 Z"
         transform="matrix(4.1666667,0,0,4.1666667,0,-1.0394837e-6)"
         id="path1" />
    </clipPath>
    <clipPath
       clipPathUnits="userSpaceOnUse"
       id="clipPath2">
      <path
         d="M 0,0 H 108.96001 V 37.92 H 0 Z"
         transform="matrix(4.1666667,0,0,4.1666667,0,-1.0394837e-6)"
         id="path2" />
    </clipPath>
    <clipPath
       clipPathUnits="userSpaceOnUse"
       id="clipPath3">
      <path
         d="M 0,0 H 108.96001 V 37.92 H 0 Z"
         transform="matrix(4.1666667,0,0,4.1666667,0,-1.0394837e-6)"
         id="path3" />
    </clipPath>
    <clipPath
       clipPathUnits="userSpaceOnUse"
       id="clipPath4">
      <path
         d="M 0,0 H 108.96001 V 37.92 H 0 Z"
         transform="matrix(4.1666667,0,0,4.1666667,0,-1.0394837e-6)"
         id="path4" />
    </clipPath>
    <clipPath
       clipPathUnits="userSpaceOnUse"
       id="clipPath5">
      <path
         d="M 0,0 H 108.96001 V 37.92 H 0 Z"
         transform="matrix(4.1666667,0,0,4.1666667,0,-1.0394837e-6)"
         id="path5" />
    </clipPath>
    <clipPath
       clipPathUnits="userSpaceOnUse"
       id="clipPath6">
      <path
         d="M 0,0 H 108.96001 V 37.92 H 0 Z"
         transform="matrix(4.1666667,0,0,4.1666667,0,-1.0394837e-6)"
         id="path6" />
    </clipPath>
    <clipPath
       clipPathUnits="userSpaceOnUse"
       id="clipPath7">
      <path
         d="M 0,0 H 108.96001 V 37.92 H 0 Z"
         transform="matrix(4.1666667,0,0,4.1666667,0,-1.0394837e-6)"
         id="path7" />
    </clipPath>
    <clipPath
       clipPathUnits="userSpaceOnUse"
       id="clipPath8">
      <path
         d="M 0,0 H 108.96001 V 37.92 H 0 Z"
         transform="matrix(4.1666667,0,0,4.1666667,0,-1.0394837e-6)"
         id="path8" />
    </clipPath>
    <clipPath
       clipPathUnits="userSpaceOnUse"
       id="clipPath9">
      <path
         d="M 0,0 H 108.96001 V 37.92 H 0 Z"
         transform="matrix(4.1666667,0,0,4.1666667,0,-1.0394837e-6)"
         id="path9" />
    </clipPath>
    <clipPath
       clipPathUnits="userSpaceOnUse"
       id="clipPath10">
      <path
         d="M 0,0 H 108.96001 V 37.92 H 0 Z"
         transform="matrix(4.1666667,0,0,4.1666667,0,-1.0394837e-6)"
         id="path10" />
    </clipPath>
    <clipPath
       clipPathUnits="userSpaceOnUse"
       id="clipPath11">
      <path
         d="M 0,0 H 108.96001 V 37.92 H 0 Z"
         transform="matrix(4.1666667,0,0,4.1666667,0,-1.0394837e-6)"
         id="path11" />
    </clipPath>
    <clipPath
       clipPathUnits="userSpaceOnUse"
       id="clipPath12">
      <path
         d="M 0,0 H 108.96001 V 37.92 H 0 Z"
         transform="matrix(4.1666667,0,0,4.1666667,0,-1.0394837e-6)"
         id="path12" />
    </clipPath>
    <clipPath
       clipPathUnits="userSpaceOnUse"
       id="clipPath13">
      <path
         d="M 0,0 H 108.96001 V 37.92 H 0 Z"
         transform="matrix(4.1666667,0,0,4.1666667,0,-1.0394837e-6)"
         id="path13" />
    </clipPath>
    <clipPath
       clipPathUnits="userSpaceOnUse"
       id="clipPath14">
      <path
         d="M 0,0 H 108.96001 V 37.92 H 0 Z"
         transform="matrix(4.1666667,0,0,4.1666667,0,-1.0394837e-6)"
         id="path14" />
    </clipPath>
    <clipPath
       clipPathUnits="userSpaceOnUse"
       id="clipPath15">
      <path
         d="M 0,0 H 108.96001 V 37.92 H 0 Z"
         transform="matrix(4.1666667,0,0,4.1666667,0,-1.0394837e-6)"
         id="path15" />
    </clipPath>
    <clipPath
       clipPathUnits="userSpaceOnUse"
       id="clipPath16">
      <path
         d="M 0,0 H 108.96001 V 37.92 H 0 Z"
         transform="matrix(4.1666667,0,0,4.1666667,0,-1.0394837e-6)"
         id="path16" />
    </clipPath>
    <clipPath
       clipPathUnits="userSpaceOnUse"
       id="clipPath17">
      <path
         d="M 0,0 H 108.96001 V 37.92 H 0 Z"
         transform="matrix(4.1666667,0,0,4.1666667,0,-1.0394837e-6)"
         id="path17" />
    </clipPath>
    <clipPath
       clipPathUnits="userSpaceOnUse"
       id="clipPath18">
      <path
         d="M 0,0 H 108.96001 V 37.92 H 0 Z"
         transform="matrix(4.1666667,0,0,4.1666667,0,-1.0394837e-6)"
         id="path18" />
    </clipPath>
    <clipPath
       clipPathUnits="userSpaceOnUse"
       id="clipPath19">
      <path
         d="M 0,0 H 108.96001 V 37.92 H 0 Z"
         transform="matrix(4.1666667,0,0,4.1666667,0,-1.0394837e-6)"
         id="path19" />
    </clipPath>
    <clipPath
       clipPathUnits="userSpaceOnUse"
       id="clipPath20">
      <path
         d="M 0,0 H 108.96001 V 37.92 H 0 Z"
         transform="matrix(4.1666667,0,0,4.1666667,0,-1.0394837e-6)"
         id="path20" />
    </clipPath>
    <clipPath
       clipPathUnits="userSpaceOnUse"
       id="clipPath44">
      <path
         d="M 0,0 H 94.08 V 123.12 H 0 Z"
         transform="matrix(4.1666667,0,0,4.1666667,1.042605e-5,1.0427094e-5)"
         id="path44" />
    </clipPath>
    <clipPath
       clipPathUnits="userSpaceOnUse"
       id="clipPath45">
      <path
         d="M 0,0 H 94.08 V 123.12 H 0 Z"
         transform="matrix(0.9999992,0,0,-0.99999917,-30.5606,84.079695)"
         id="path45" />
    </clipPath>
    <clipPath
       clipPathUnits="userSpaceOnUse"
       id="clipPath46">
      <path
         d="M 0,0 H 94.08 V 123.12 H 0 Z"
         transform="matrix(0.9999992,0,0,-0.99999917,-9.4406215,83.599696)"
         id="path46" />
    </clipPath>
    <clipPath
       clipPathUnits="userSpaceOnUse"
       id="clipPath47">
      <path
         d="M 0,0 H 94.08 V 123.12 H 0 Z"
         transform="matrix(0.9999992,0,0,-0.99999917,-83.600601,81.679697)"
         id="path47" />
    </clipPath>
    <clipPath
       clipPathUnits="userSpaceOnUse"
       id="clipPath48">
      <path
         d="M 0,0 H 94.08 V 123.12 H 0 Z"
         transform="matrix(0.9999992,0,0,-0.99999917,-77.600598,70.879699)"
         id="path48" />
    </clipPath>
    <clipPath
       clipPathUnits="userSpaceOnUse"
       id="clipPath49">
      <path
         d="M 0,0 H 94.08 V 123.12 H 0 Z"
         transform="matrix(4.1666667,0,0,4.1666667,1.042605e-5,1.0427094e-5)"
         id="path49" />
    </clipPath>
    <clipPath
       clipPathUnits="userSpaceOnUse"
       id="clipPath50">
      <path
         d="M 0,0 H 94.08 V 123.12 H 0 Z"
         transform="matrix(4.1666667,0,0,4.1666667,1.042605e-5,1.0427094e-5)"
         id="path50" />
    </clipPath>
    <clipPath
       clipPathUnits="userSpaceOnUse"
       id="clipPath51">
      <path
         d="M 0,0 H 94.08 V 123.12 H 0 Z"
         transform="matrix(4.1666667,0,0,4.1666667,1.042605e-5,1.0427094e-5)"
         id="path51" />
    </clipPath>
    <clipPath
       clipPathUnits="userSpaceOnUse"
       id="clipPath52">
      <path
         d="M 0,0 H 94.08 V 123.12 H 0 Z"
         transform="matrix(4.1666667,0,0,4.1666667,1.042605e-5,1.0427094e-5)"
         id="path52" />
    </clipPath>
    <clipPath
       clipPathUnits="userSpaceOnUse"
       id="clipPath53">
      <path
         d="M 0,0 H 94.08 V 123.12 H 0 Z"
         transform="matrix(4.1666667,0,0,4.1666667,1.042605e-5,1.0427094e-5)"
         id="path53" />
    </clipPath>
    <clipPath
       clipPathUnits="userSpaceOnUse"
       id="clipPath54">
      <path
         d="M 0,0 H 94.08 V 123.12 H 0 Z"
         transform="matrix(4.1666667,0,0,4.1666667,1.042605e-5,1.0427094e-5)"
         id="path54" />
    </clipPath>
    <clipPath
       clipPathUnits="userSpaceOnUse"
       id="clipPath55">
      <path
         d="M 0,0 H 94.08 V 123.12 H 0 Z"
         transform="matrix(4.1666667,0,0,4.1666667,1.042605e-5,1.0427094e-5)"
         id="path55" />
    </clipPath>
    <clipPath
       clipPathUnits="userSpaceOnUse"
       id="clipPath56">
      <path
         d="M 0,0 H 94.08 V 123.12 H 0 Z"
         transform="matrix(4.1666667,0,0,4.1666667,1.042605e-5,1.0427094e-5)"
         id="path56" />
    </clipPath>
    <clipPath
       clipPathUnits="userSpaceOnUse"
       id="clipPath57">
      <path
         d="M 0,0 H 94.08 V 123.12 H 0 Z"
         transform="matrix(4.1666667,0,0,4.1666667,1.042605e-5,1.0427094e-5)"
         id="path57" />
    </clipPath>
    <clipPath
       clipPathUnits="userSpaceOnUse"
       id="clipPath58">
      <path
         d="M 0,0 H 94.08 V 123.12 H 0 Z"
         transform="matrix(0.9999992,0,0,-0.99999917,-11.840597,116.24)"
         id="path58" />
    </clipPath>
    <clipPath
       clipPathUnits="userSpaceOnUse"
       id="clipPath82">
      <path
         d="M 0,0 H 112.08 V 11.03999 H 0 Z"
         transform="matrix(0.99999917,0,0,-0.9999992,0.07968571,0.67968884)"
         id="path82" />
    </clipPath>
    <clipPath
       clipPathUnits="userSpaceOnUse"
       id="clipPath83">
      <path
         d="M 0,0 H 112.08 V 11.03999 H 0 Z"
         transform="matrix(4.1666667,0,0,4.1666667,1.0423963e-5,0)"
         id="path83" />
    </clipPath>
    <clipPath
       clipPathUnits="userSpaceOnUse"
       id="clipPath84">
      <path
         d="M 0,0 H 112.08 V 11.03999 H 0 Z"
         transform="matrix(0.99999917,0,0,-0.9999992,-96.880299,0.67968884)"
         id="path84" />
    </clipPath>
    <clipPath
       clipPathUnits="userSpaceOnUse"
       id="clipPath85">
      <path
         d="M 0,0 H 112.08 V 11.03999 H 0 Z"
         transform="matrix(4.1666667,0,0,4.1666667,1.0423963e-5,0)"
         id="path85" />
    </clipPath>
    <clipPath
       clipPathUnits="userSpaceOnUse"
       id="clipPath86">
      <path
         d="M 0,0 H 112.08 V 11.03999 H 0 Z"
         transform="matrix(4.1666667,0,0,4.1666667,1.0423963e-5,0)"
         id="path86" />
    </clipPath>
    <clipPath
       clipPathUnits="userSpaceOnUse"
       id="clipPath156">
      <path
         d="M 0,0 H 163.92 V 24.96001 H 0 Z"
         transform="matrix(4.1666667,0,0,4.1666667,-1.0411461e-5,0)"
         id="path156" />
    </clipPath>
    <clipPath
       clipPathUnits="userSpaceOnUse"
       id="clipPath157">
      <path
         d="M 0,0 H 163.92 V 24.96001 H 0 Z"
         transform="matrix(0.99999918,0,0,-0.99999923,-0.36093923,16.519703)"
         id="path157" />
    </clipPath>
    <clipPath
       clipPathUnits="userSpaceOnUse"
       id="clipPath158">
      <path
         d="M 0,0 H 163.92 V 24.96001 H 0 Z"
         transform="matrix(4.1666667,0,0,4.1666667,-1.0411461e-5,0)"
         id="path158" />
    </clipPath>
    <clipPath
       clipPathUnits="userSpaceOnUse"
       id="clipPath159">
      <path
         d="M 0,0 H 163.92 V 24.96001 H 0 Z"
         transform="matrix(4.1666667,0,0,4.1666667,-1.0411461e-5,0)"
         id="path159" />
    </clipPath>
    <clipPath
       clipPathUnits="userSpaceOnUse"
       id="clipPath160">
      <path
         d="M 0,0 H 163.92 V 24.96001 H 0 Z"
         transform="matrix(0.99999918,0,0,-0.99999923,-0.36093923,2.1196919)"
         id="path160" />
    </clipPath>
    <clipPath
       clipPathUnits="userSpaceOnUse"
       id="clipPath161">
      <path
         d="M 0,0 H 163.92 V 24.96001 H 0 Z"
         transform="matrix(4.1666667,0,0,4.1666667,-1.0411461e-5,0)"
         id="path161" />
    </clipPath>
    <clipPath
       clipPathUnits="userSpaceOnUse"
       id="clipPath162">
      <path
         d="M 0,0 H 163.92 V 24.96001 H 0 Z"
         transform="matrix(4.1666667,0,0,4.1666667,-1.0411461e-5,0)"
         id="path162" />
    </clipPath>
    <clipPath
       clipPathUnits="userSpaceOnUse"
       id="clipPath163">
      <path
         d="M 0,0 H 163.92 V 24.96001 H 0 Z"
         transform="matrix(4.1666667,0,0,4.1666667,-1.0411461e-5,0)"
         id="path163" />
    </clipPath>
    <clipPath
       clipPathUnits="userSpaceOnUse"
       id="clipPath164">
      <path
         d="M 0,0 H 163.92 V 24.96001 H 0 Z"
         transform="matrix(0.99999918,0,0,-0.99999923,-158.281,9.7996904)"
         id="path164" />
    </clipPath>
    <clipPath
       clipPathUnits="userSpaceOnUse"
       id="clipPath165">
      <path
         d="M 0,0 H 163.92 V 24.96001 H 0 Z"
         transform="matrix(4.1666667,0,0,4.1666667,-1.0411461e-5,0)"
         id="path165" />
    </clipPath>
    <clipPath
       clipPathUnits="userSpaceOnUse"
       id="clipPath166">
      <path
         d="M 0,0 H 163.92 V 24.96001 H 0 Z"
         transform="matrix(4.1666667,0,0,4.1666667,-1.0411461e-5,0)"
         id="path166" />
    </clipPath>
    <clipPath
       clipPathUnits="userSpaceOnUse"
       id="clipPath167">
      <path
         d="M 0,0 H 163.92 V 24.96001 H 0 Z"
         transform="matrix(4.1666667,0,0,4.1666667,-1.0411461e-5,0)"
         id="path167" />
    </clipPath>
    <clipPath
       clipPathUnits="userSpaceOnUse"
       id="clipPath168">
      <path
         d="M 0,0 H 163.92 V 24.96001 H 0 Z"
         transform="matrix(4.1666667,0,0,4.1666667,-1.0411461e-5,0)"
         id="path168" />
    </clipPath>
    <clipPath
       clipPathUnits="userSpaceOnUse"
       id="clipPath182">
      <path
         d="M 0,0 H 22.08 V 19.92 H 0 Z"
         transform="scale(4.1666667)"
         id="path182" />
    </clipPath>
    <clipPath
       clipPathUnits="userSpaceOnUse"
       id="clipPath183">
      <path
         d="M 0,0 H 22.08 V 19.92 H 0 Z"
         transform="scale(4.1666667)"
         id="path183" />
    </clipPath>
    <clipPath
       clipPathUnits="userSpaceOnUse"
       id="clipPath184">
      <path
         d="M 0,0 H 22.08 V 19.92 H 0 Z"
         transform="scale(4.1666667)"
         id="path184" />
    </clipPath>
    <clipPath
       clipPathUnits="userSpaceOnUse"
       id="clipPath185">
      <path
         d="M 0,0 H 22.08 V 19.92 H 0 Z"
         transform="scale(4.1666667)"
         id="path185" />
    </clipPath>
    <clipPath
       clipPathUnits="userSpaceOnUse"
       id="clipPath186">
      <path
         d="M 0,0 H 22.08 V 19.92 H 0 Z"
         transform="scale(4.1666667)"
         id="path186" />
    </clipPath>
    <clipPath
       clipPathUnits="userSpaceOnUse"
       id="clipPath187">
      <path
         d="M 0,0 H 22.08 V 19.92 H 0 Z"
         transform="scale(4.1666667)"
         id="path187" />
    </clipPath>
    <clipPath
       clipPathUnits="userSpaceOnUse"
       id="clipPath188">
      <path
         d="M 0,0 H 22.08 V 19.92 H 0 Z"
         transform="scale(4.1666667)"
         id="path188" />
    </clipPath>
    <clipPath
       clipPathUnits="userSpaceOnUse"
       id="clipPath189">
      <path
         d="M 0,0 H 22.08 V 19.92 H 0 Z"
         transform="scale(4.1666667)"
         id="path189" />
    </clipPath>
    <clipPath
       clipPathUnits="userSpaceOnUse"
       id="clipPath190">
      <path
         d="M 0,0 H 22.08 V 19.92 H 0 Z"
         transform="scale(4.1666667)"
         id="path190" />
    </clipPath>
    <clipPath
       clipPathUnits="userSpaceOnUse"
       id="clipPath191">
      <path
         d="M 0,0 H 22.08 V 19.92 H 0 Z"
         transform="scale(4.1666667)"
         id="path191" />
    </clipPath>
    <clipPath
       clipPathUnits="userSpaceOnUse"
       id="clipPath192">
      <path
         d="M 0,0 H 22.08 V 19.92 H 0 Z"
         transform="scale(4.1666667)"
         id="path192" />
    </clipPath>
    <clipPath
       clipPathUnits="userSpaceOnUse"
       id="clipPath193">
      <path
         d="M 0,0 H 22.08 V 19.92 H 0 Z"
         transform="scale(4.1666667)"
         id="path193" />
    </clipPath>
    <clipPath
       clipPathUnits="userSpaceOnUse"
       id="clipPath194">
      <path
         d="M 0,0 H 22.08 V 19.92 H 0 Z"
         transform="scale(4.1666667)"
         id="path194" />
    </clipPath>
    <clipPath
       clipPathUnits="userSpaceOnUse"
       id="clipPath195">
      <path
         d="M 0,0 H 22.08 V 19.92 H 0 Z"
         transform="scale(4.1666667)"
         id="path195" />
    </clipPath>
    <clipPath
       clipPathUnits="userSpaceOnUse"
       id="clipPath196">
      <path
         d="M 0,0 H 22.08 V 19.92 H 0 Z"
         transform="scale(4.1666667)"
         id="path196" />
    </clipPath>
    <clipPath
       clipPathUnits="userSpaceOnUse"
       id="clipPath197">
      <path
         d="M 0,0 H 22.08 V 19.92 H 0 Z"
         transform="scale(4.1666667)"
         id="path197" />
    </clipPath>
    <clipPath
       clipPathUnits="userSpaceOnUse"
       id="clipPath198">
      <path
         d="M 0,0 H 22.08 V 19.92 H 0 Z"
         transform="scale(4.1666667)"
         id="path198" />
    </clipPath>
    <clipPath
       clipPathUnits="userSpaceOnUse"
       id="clipPath199">
      <path
         d="M 0,0 H 22.08 V 19.92 H 0 Z"
         transform="scale(4.1666667)"
         id="path199" />
    </clipPath>
    <clipPath
       clipPathUnits="userSpaceOnUse"
       id="clipPath200">
      <path
         d="M 0,0 H 22.08 V 19.92 H 0 Z"
         transform="scale(4.1666667)"
         id="path200" />
    </clipPath>
    <clipPath
       clipPathUnits="userSpaceOnUse"
       id="clipPath201">
      <path
         d="M 0,0 H 22.08 V 19.92 H 0 Z"
         transform="scale(4.1666667)"
         id="path201" />
    </clipPath>
    <clipPath
       clipPathUnits="userSpaceOnUse"
       id="clipPath202">
      <path
         d="M 0,0 H 22.08 V 19.92 H 0 Z"
         transform="scale(4.1666667)"
         id="path202" />
    </clipPath>
    <clipPath
       clipPathUnits="userSpaceOnUse"
       id="clipPath203">
      <path
         d="M 0,0 H 22.08 V 19.92 H 0 Z"
         transform="scale(4.1666667)"
         id="path203" />
    </clipPath>
    <clipPath
       clipPathUnits="userSpaceOnUse"
       id="clipPath204">
      <path
         d="M 0,0 H 22.08 V 19.92 H 0 Z"
         transform="scale(4.1666667)"
         id="path204" />
    </clipPath>
    <clipPath
       clipPathUnits="userSpaceOnUse"
       id="clipPath205">
      <path
         d="M 0,0 H 22.08 V 19.92 H 0 Z"
         transform="scale(4.1666667)"
         id="path205" />
    </clipPath>
    <clipPath
       clipPathUnits="userSpaceOnUse"
       id="clipPath206">
      <path
         d="M 0,0 H 22.08 V 19.92 H 0 Z"
         transform="scale(4.1666667)"
         id="path206" />
    </clipPath>
    <clipPath
       clipPathUnits="userSpaceOnUse"
       id="clipPath207">
      <path
         d="M 0,0 H 22.08 V 19.92 H 0 Z"
         transform="scale(4.1666667)"
         id="path207" />
    </clipPath>
    <clipPath
       clipPathUnits="userSpaceOnUse"
       id="clipPath208">
      <path
         d="M 0,0 H 22.08 V 19.92 H 0 Z"
         transform="scale(4.1666667)"
         id="path208" />
    </clipPath>
    <clipPath
       clipPathUnits="userSpaceOnUse"
       id="clipPath209">
      <path
         d="M 0,0 H 22.08 V 19.92 H 0 Z"
         transform="scale(4.1666667)"
         id="path209" />
    </clipPath>
    <clipPath
       clipPathUnits="userSpaceOnUse"
       id="clipPath210">
      <path
         d="M 0,0 H 22.08 V 19.92 H 0 Z"
         transform="scale(4.1666667)"
         id="path210" />
    </clipPath>
    <clipPath
       clipPathUnits="userSpaceOnUse"
       id="clipPath211">
      <path
         d="M 0,0 H 22.08 V 19.92 H 0 Z"
         transform="scale(4.1666667)"
         id="path211" />
    </clipPath>
    <clipPath
       clipPathUnits="userSpaceOnUse"
       id="clipPath212">
      <path
         d="M 0,0 H 22.08 V 19.92 H 0 Z"
         transform="scale(4.1666667)"
         id="path212" />
    </clipPath>
    <clipPath
       clipPathUnits="userSpaceOnUse"
       id="clipPath213">
      <path
         d="M 0,0 H 22.08 V 19.92 H 0 Z"
         transform="scale(4.1666667)"
         id="path213" />
    </clipPath>
    <clipPath
       clipPathUnits="userSpaceOnUse"
       id="clipPath214">
      <path
         d="M 0,0 H 22.08 V 19.92 H 0 Z"
         transform="scale(4.1666667)"
         id="path214" />
    </clipPath>
    <clipPath
       clipPathUnits="userSpaceOnUse"
       id="clipPath215">
      <path
         d="M 0,0 H 22.08 V 19.92 H 0 Z"
         transform="scale(4.1666667)"
         id="path215" />
    </clipPath>
    <clipPath
       clipPathUnits="userSpaceOnUse"
       id="clipPath44-1">
      <path
         d="M 0,0 H 94.08 V 123.12 H 0 Z"
         transform="matrix(4.1666667,0,0,4.1666667,1.042605e-5,1.0427094e-5)"
         id="path44-9" />
    </clipPath>
    <clipPath
       clipPathUnits="userSpaceOnUse"
       id="clipPath45-4">
      <path
         d="M 0,0 H 94.08 V 123.12 H 0 Z"
         transform="matrix(0.9999992,0,0,-0.99999917,-30.5606,84.079695)"
         id="path45-8" />
    </clipPath>
    <clipPath
       clipPathUnits="userSpaceOnUse"
       id="clipPath46-5">
      <path
         d="M 0,0 H 94.08 V 123.12 H 0 Z"
         transform="matrix(0.9999992,0,0,-0.99999917,-9.4406215,83.599696)"
         id="path46-4" />
    </clipPath>
    <clipPath
       clipPathUnits="userSpaceOnUse"
       id="clipPath47-2">
      <path
         d="M 0,0 H 94.08 V 123.12 H 0 Z"
         transform="matrix(0.9999992,0,0,-0.99999917,-83.600601,81.679697)"
         id="path47-0" />
    </clipPath>
    <clipPath
       clipPathUnits="userSpaceOnUse"
       id="clipPath48-5">
      <path
         d="M 0,0 H 94.08 V 123.12 H 0 Z"
         transform="matrix(0.9999992,0,0,-0.99999917,-77.600598,70.879699)"
         id="path48-4" />
    </clipPath>
    <clipPath
       clipPathUnits="userSpaceOnUse"
       id="clipPath49-6">
      <path
         d="M 0,0 H 94.08 V 123.12 H 0 Z"
         transform="matrix(4.1666667,0,0,4.1666667,1.042605e-5,1.0427094e-5)"
         id="path49-7" />
    </clipPath>
    <clipPath
       clipPathUnits="userSpaceOnUse"
       id="clipPath50-6">
      <path
         d="M 0,0 H 94.08 V 123.12 H 0 Z"
         transform="matrix(4.1666667,0,0,4.1666667,1.042605e-5,1.0427094e-5)"
         id="path50-9" />
    </clipPath>
    <clipPath
       clipPathUnits="userSpaceOnUse"
       id="clipPath51-8">
      <path
         d="M 0,0 H 94.08 V 123.12 H 0 Z"
         transform="matrix(4.1666667,0,0,4.1666667,1.042605e-5,1.0427094e-5)"
         id="path51-7" />
    </clipPath>
    <clipPath
       clipPathUnits="userSpaceOnUse"
       id="clipPath52-0">
      <path
         d="M 0,0 H 94.08 V 123.12 H 0 Z"
         transform="matrix(4.1666667,0,0,4.1666667,1.042605e-5,1.0427094e-5)"
         id="path52-7" />
    </clipPath>
    <clipPath
       clipPathUnits="userSpaceOnUse"
       id="clipPath53-6">
      <path
         d="M 0,0 H 94.08 V 123.12 H 0 Z"
         transform="matrix(4.1666667,0,0,4.1666667,1.042605e-5,1.0427094e-5)"
         id="path53-5" />
    </clipPath>
    <clipPath
       clipPathUnits="userSpaceOnUse"
       id="clipPath54-3">
      <path
         d="M 0,0 H 94.08 V 123.12 H 0 Z"
         transform="matrix(4.1666667,0,0,4.1666667,1.042605e-5,1.0427094e-5)"
         id="path54-9" />
    </clipPath>
    <clipPath
       clipPathUnits="userSpaceOnUse"
       id="clipPath55-9">
      <path
         d="M 0,0 H 94.08 V 123.12 H 0 Z"
         transform="matrix(4.1666667,0,0,4.1666667,1.042605e-5,1.0427094e-5)"
         id="path55-6" />
    </clipPath>
    <clipPath
       clipPathUnits="userSpaceOnUse"
       id="clipPath56-4">
      <path
         d="M 0,0 H 94.08 V 123.12 H 0 Z"
         transform="matrix(4.1666667,0,0,4.1666667,1.042605e-5,1.0427094e-5)"
         id="path56-4" />
    </clipPath>
    <clipPath
       clipPathUnits="userSpaceOnUse"
       id="clipPath57-2">
      <path
         d="M 0,0 H 94.08 V 123.12 H 0 Z"
         transform="matrix(4.1666667,0,0,4.1666667,1.042605e-5,1.0427094e-5)"
         id="path57-2" />
    </clipPath>
    <clipPath
       clipPathUnits="userSpaceOnUse"
       id="clipPath58-9">
      <path
         d="M 0,0 H 94.08 V 123.12 H 0 Z"
         transform="matrix(0.9999992,0,0,-0.99999917,-11.840597,116.24)"
         id="path58-8" />
    </clipPath>
  </defs>
  <sodipodi:namedview
     id="namedview1"
     pagecolor="#ffffff"
     bordercolor="#000000"
     borderopacity="0.25"
     inkscape:showpageshadow="2"
     inkscape:pageopacity="0.0"
     inkscape:pagecheckerboard="0"
     inkscape:deskcolor="#d1d1d1"
     inkscape:zoom="1.7566288"
     inkscape:cx="-144.31051"
     inkscape:cy="349.24852"
     inkscape:window-width="3720"
     inkscape:window-height="2120"
     inkscape:window-x="3948"
     inkscape:window-y="-12"
     inkscape:window-maximized="1"
     inkscape:current-layer="g73">
    <inkscape:page
       x="0"
       y="0"
       inkscape:label="1"
       id="page1"
       width="123.55859"
       height="131.06879"
       margin="0"
       bleed="0" />
  </sodipodi:namedview>
  <g
     id="g1"
     inkscape:groupmode="layer"
     inkscape:label="1"
     transform="translate(-552,-178.78128)">
    <g
       id="g73"
       transform="translate(29.27734,15.12891)">
      <path
         d="m 225.336,410.332 v -16 h -0.004 c 0,-11.598 -9.402,-21 -21,-21 -11.598,0 -21,9.402 -21,21 h 0.004 v 16"
         style="fill:none;stroke:#231f20;stroke-width:4;stroke-linecap:round;stroke-linejoin:round;stroke-miterlimit:10;stroke-dasharray:none;stroke-opacity:1"
         transform="matrix(0.319712,0,0,-0.31968,521.33333,295.46667)"
         clip-path="url(#clipPath44-1)"
         id="path59" />
      <path
         d="M 2.9783473,1.7986372e-4 H 2.2745895 V -4.4808601 C 2.1015824,-4.3166335 1.8787257,-4.1524069 1.6060196,-3.9881803 1.3303811,-3.8298189 1.0840658,-3.7125142 0.86707385,-3.6362662 V -4.3166335 C 1.2658699,-4.4955232 1.6089519,-4.7184021 1.899252,-4.9852704 2.1954167,-5.249206 2.4036118,-5.5043437 2.5209047,-5.747751 H 2.9783473 Z M 4.0222547,11.801034 v 0.680367 H 0.24542111 c -0.008797,-0.170092 0.0175939,-0.334318 0.0821051,-0.49268 0.0938344,-0.25807 0.24631523,-0.510275 0.45744258,-0.76248 C 0.99609612,10.976968 1.3039902,10.692504 1.7115832,10.369916 2.3273713,9.8537756 2.7466937,9.4490743 2.966618,9.1499473 3.18361,8.8537529 3.2950383,8.5722216 3.2950383,8.3053534 3.2950383,8.0238221 3.192407,7.7892127 2.9900766,7.6015251 2.7936109,7.4079724 2.5355663,7.3082634 2.215943,7.3082634 1.8787257,7.3082634 1.6089519,7.410905 1.4066215,7.6132556 1.2013588,7.8185388 1.1016598,8.1000702 1.1016598,8.4578495 L 0.37444338,8.3874667 C 0.42136056,7.847865 0.60316467,7.4372985 0.92572033,7.1557672 1.2541407,6.8742359 1.6881246,6.7334703 2.2276723,6.7334703 c 0.5542093,0 0.9911256,0.1524961 1.3136813,0.4574883 0.3196233,0.3049923 0.4809011,0.6803674 0.4809011,1.1261253 0,0.2346094 -0.046917,0.4633536 -0.1407515,0.6803673 C 3.7876688,9.2173975 3.6293233,9.4520069 3.4123313,9.7012795 3.192407,9.9446867 2.8287988,10.276073 2.3215067,10.69837 c -0.4163901,0.360711 -0.6861639,0.604119 -0.8093215,0.727289 -0.117293,0.126102 -0.216992,0.252205 -0.2932324,0.375375 z m -3.68299922,11.40495 0.70375782,-0.09384 c 0.07624,0.398836 0.2140597,0.689165 0.4105254,0.868054 0.1935334,0.173025 0.4281193,0.258071 0.7037578,0.258071 0.3284203,0 0.6040588,-0.11144 0.8327801,-0.340184 0.2345859,-0.234609 0.3518789,-0.519073 0.3518789,-0.856324 0,-0.319656 -0.1055637,-0.586524 -0.316691,-0.797672 C 2.8141372,22.03294 2.5443633,21.927366 2.215943,21.927366 c -0.1348869,0 -0.2990971,0.02933 -0.4926305,0.08211 l 0.082105,-0.621715 c 0.046917,0.0088 0.082105,0.01173 0.1055637,0.01173 0.2961647,0 0.5659386,-0.07625 0.8093215,-0.23461 0.2404506,-0.155428 0.3636082,-0.398836 0.3636082,-0.727289 0,-0.25807 -0.090902,-0.469219 -0.2697738,-0.633445 -0.1730072,-0.170092 -0.3958638,-0.258071 -0.66857,-0.258071 -0.2756385,0 -0.5043597,0.08798 -0.6920285,0.258071 -0.1818041,0.173024 -0.2932324,0.431095 -0.3401496,0.774211 L 0.40963127,20.449324 C 0.49466867,19.980105 0.69113439,19.61646 0.99609612,19.35839 1.3010578,19.100319 1.6763953,18.971284 2.1221086,18.971284 c 0.3108264,0 0.6011265,0.06745 0.867968,0.199418 0.2639092,0.134901 0.4633072,0.316723 0.5981942,0.551332 0.1407515,0.228745 0.2111273,0.475084 0.2111273,0.73902 0,0.243407 -0.067443,0.466286 -0.1993981,0.668637 -0.1348869,0.205283 -0.3284203,0.36951 -0.5864648,0.49268 0.334285,0.07918 0.5981941,0.243407 0.7858629,0.492679 0.1876687,0.243408 0.2815031,0.5484 0.2815031,0.914977 0,0.501478 -0.1847364,0.926707 -0.5512769,1.278622 -0.3606759,0.346048 -0.8181185,0.51614 -1.3723278,0.51614 -0.5014274,0 -0.9207498,-0.146631 -1.25503476,-0.445758 C 0.57384142,24.074039 0.38617267,23.684001 0.33925548,23.205984 Z M 2.5795512,37.200436 V 35.827971 H 0.10466954 V 35.182795 L 2.7085735,31.475966 H 3.283309 v 3.706829 h 0.7741336 v 0.645176 H 3.283309 v 1.372465 z m 0,-2.017641 V 32.602092 L 0.79669807,35.182795 Z M 0.32752619,47.939683 1.0664719,47.88103 c 0.052782,0.360712 0.1788718,0.630513 0.3753375,0.809403 0.2023304,0.181822 0.4457133,0.269801 0.7272164,0.269801 0.334285,0 0.6216528,-0.12317 0.8562387,-0.375375 0.2345859,-0.258071 0.3518789,-0.598254 0.3518789,-1.020551 0,-0.398836 -0.1143606,-0.715559 -0.3401496,-0.950169 C 2.8170695,46.37953 2.523837,46.262225 2.1572965,46.262225 c -0.2287213,0 -0.4310516,0.05572 -0.6099234,0.164227 -0.1818041,0.102641 -0.325488,0.234609 -0.433984,0.398836 L 0.45654845,46.731444 1.0078254,43.787096 h 2.8502192 v 0.680367 H 1.5708317 l -0.3049618,1.536692 c 0.343082,-0.240475 0.7037579,-0.363645 1.0790954,-0.363645 0.4984951,0 0.9207498,0.175957 1.266764,0.527871 0.343082,0.346049 0.5160891,0.785942 0.5160891,1.325544 0,0.524938 -0.1524808,0.973629 -0.4574426,1.349004 -0.3694728,0.463353 -0.8679679,0.692098 -1.50135,0.692098 -0.5160891,0 -0.9442084,-0.143699 -1.27849336,-0.434028 C 0.56211213,48.813603 0.37444338,48.426497 0.32752619,47.939683 Z M 3.9753376,57.590928 3.283309,57.64958 C 3.2187979,57.376847 3.1308282,57.177429 3.0135352,57.051326 2.8258664,56.848975 2.5912805,56.746334 2.3097774,56.746334 c -0.2199243,0 -0.4163901,0.06452 -0.5864649,0.187687 -0.2199243,0.164227 -0.3958637,0.404702 -0.5278183,0.715559 -0.12609,0.304992 -0.1935334,0.744885 -0.19939808,1.313813 C 1.1661709,58.705322 1.3743659,58.514702 1.6177489,58.3886 1.8669964,58.26543 2.125041,58.200912 2.3918825,58.200912 c 0.4691718,0 0.8679679,0.175957 1.1963883,0.527871 0.3284203,0.346049 0.4926304,0.785942 0.4926304,1.325544 0,0.360712 -0.079173,0.697963 -0.2345859,1.00882 -0.1583455,0.304992 -0.3724052,0.539602 -0.6451113,0.703828 -0.2668416,0.164227 -0.5718033,0.24634 -0.9148852,0.24634 -0.5864649,0 -1.0644337,-0.214081 -1.43097425,-0.645176 -0.36947285,-0.428162 -0.55127696,-1.137855 -0.55127696,-2.123215 0,-1.108529 0.20233038,-1.914999 0.60992345,-2.416477 0.35774356,-0.43696 0.83864476,-0.656906 1.44270356,-0.656906 0.4457133,0 0.8122538,0.126102 1.1025539,0.375375 0.2873678,0.252205 0.4603749,0.598254 0.5160891,1.044012 z m -2.8619485,2.475129 c 0,0.243407 0.049849,0.475084 0.1524808,0.692098 0.099699,0.219946 0.2404506,0.387105 0.4222547,0.50441 0.1876688,0.117305 0.3812022,0.175957 0.5864649,0.175957 0.2961647,0 0.5512769,-0.117304 0.7624043,-0.351914 0.216992,-0.240475 0.3284203,-0.568928 0.3284203,-0.985359 0,-0.390039 -0.1055637,-0.697964 -0.316691,-0.926708 -0.2111274,-0.234609 -0.4779689,-0.351914 -0.7975922,-0.351914 -0.3225557,0 -0.5923295,0.117305 -0.8093215,0.351914 -0.2199243,0.228744 -0.3284203,0.524939 -0.3284203,0.891516 z M 0.37444338,69.186498 V 68.506131 H 4.0809012 v 0.551332 C 3.7202253,69.441636 3.3595495,69.957777 3.0018059,70.605885 2.64113,71.248129 2.3625592,71.907968 2.1690258,72.588335 2.0282743,73.066352 1.9373722,73.59129 1.899252,74.160218 H 1.1837649 c 0.00586,-0.451623 0.093834,-0.99709 0.2580445,-1.630535 0.1700748,-0.639311 0.4134577,-1.255161 0.7272164,-1.841684 0.3196234,-0.592389 0.6568406,-1.093867 1.0087196,-1.501501 z M 31.539185,1.7986372e-4 H 30.835428 V -4.4808601 c -0.173007,0.1642266 -0.395864,0.3284532 -0.66857,0.4926798 -0.275639,0.1583614 -0.521954,0.2756661 -0.738946,0.3519141 v -0.6803673 c 0.398796,-0.1788897 0.741878,-0.4017686 1.032178,-0.6686369 0.296165,-0.2639356 0.50436,-0.5190733 0.621653,-0.7624806 h 0.457442 z m 4.04954,0 V -1.3722853 H 33.113844 V -2.0174612 L 35.717748,-5.72429 h 0.574735 v 3.7068288 h 0.774134 v 0.6451759 H 36.292483 V 1.7986372e-4 Z m 0,-2.01764106372 v -2.5807036 l -1.782853,2.5807036 z M 31.539185,12.481401 H 30.835428 V 8.0003612 C 30.662421,8.1645877 30.439564,8.3288143 30.166858,8.4930409 29.891219,8.6514023 29.644904,8.768707 29.427912,8.8449551 V 8.1645877 C 29.826708,7.9856981 30.16979,7.7628191 30.46009,7.4959509 30.756255,7.2320153 30.96445,6.9768775 31.081743,6.7334703 h 0.457442 z m 1.809245,-1.513231 0.703757,-0.09384 c 0.07624,0.398836 0.21406,0.689165 0.410526,0.868054 0.193533,0.173025 0.428119,0.258071 0.703758,0.258071 0.32842,0 0.604058,-0.11144 0.83278,-0.340184 0.234586,-0.234609 0.351879,-0.519073 0.351879,-0.856324 0,-0.319656 -0.105564,-0.586524 -0.316691,-0.797672 -0.211128,-0.2111488 -0.480902,-0.316723 -0.809322,-0.316723 -0.134887,0 -0.299097,0.029326 -0.49263,0.082113 l 0.0821,-0.621715 c 0.04692,0.0088 0.08211,0.011731 0.105563,0.011731 0.296165,0 0.565939,-0.076248 0.809322,-0.2346094 0.24045,-0.1554288 0.363608,-0.398836 0.363608,-0.7272892 0,-0.2580704 -0.0909,-0.4692189 -0.269774,-0.6334455 -0.173007,-0.1700918 -0.395864,-0.2580703 -0.66857,-0.2580703 -0.275638,0 -0.504359,0.087978 -0.692028,0.2580703 -0.181804,0.1730245 -0.293233,0.4310948 -0.34015,0.7742111 L 33.418805,8.2115096 c 0.08504,-0.4692188 0.281503,-0.8328634 0.586465,-1.0909338 0.304962,-0.2580703 0.680299,-0.3871055 1.126013,-0.3871055 0.310826,0 0.601126,0.06745 0.867968,0.199418 0.263909,0.1349004 0.463307,0.3167227 0.598194,0.5513321 0.140751,0.2287442 0.211127,0.4750841 0.211127,0.7390197 0,0.2434073 -0.06744,0.4662862 -0.199398,0.6686369 -0.134887,0.2052832 -0.32842,0.3695098 -0.586465,0.4926797 0.334285,0.079181 0.598194,0.2434073 0.785863,0.4926798 0.187669,0.2434075 0.281503,0.5483995 0.281503,0.9149765 0,0.501478 -0.184736,0.926707 -0.551277,1.278622 -0.360676,0.346049 -0.818118,0.51614 -1.372327,0.51614 -0.501428,0 -0.92075,-0.146631 -1.255035,-0.445758 -0.328421,-0.304992 -0.516089,-0.69503 -0.563006,-1.173047 z m -1.809245,13.751045 h -0.703757 v -4.48104 c -0.173007,0.164227 -0.395864,0.328453 -0.66857,0.49268 -0.275639,0.158361 -0.521954,0.275666 -0.738946,0.351914 v -0.680367 c 0.398796,-0.17889 0.741878,-0.401769 1.032178,-0.668637 0.296165,-0.263936 0.50436,-0.519073 0.621653,-0.762481 h 0.457442 z m 5.492244,-0.680367 v 0.680367 h -3.776834 c -0.0088,-0.170092 0.01759,-0.334318 0.0821,-0.49268 0.09383,-0.25807 0.246315,-0.510275 0.457443,-0.76248 0.211127,-0.249273 0.519021,-0.533737 0.926614,-0.856325 0.615788,-0.51614 1.035111,-0.920842 1.255035,-1.219969 0.216992,-0.296194 0.32842,-0.577725 0.32842,-0.844594 0,-0.281531 -0.102631,-0.51614 -0.304961,-0.703828 -0.196466,-0.193553 -0.454511,-0.293262 -0.774134,-0.293262 -0.337217,0 -0.606991,0.102642 -0.809321,0.304993 -0.205263,0.205283 -0.304962,0.486814 -0.304962,0.844593 l -0.727217,-0.07038 c 0.04692,-0.539602 0.228722,-0.950168 0.551277,-1.2317 0.328421,-0.281531 0.762405,-0.422297 1.301952,-0.422297 0.55421,0 0.991126,0.152496 1.313682,0.457489 0.319623,0.304992 0.480901,0.680367 0.480901,1.126125 0,0.234609 -0.04692,0.463353 -0.140752,0.680367 -0.09383,0.219946 -0.25218,0.454556 -0.469172,0.703828 -0.219924,0.243408 -0.583532,0.574794 -1.090824,0.99709 -0.41639,0.360712 -0.686164,0.60412 -0.809322,0.72729 -0.117293,0.126102 -0.216992,0.252205 -0.293232,0.375375 z m -5.011342,13.161588 h -0.703758 v -4.48104 c -0.173007,0.164227 -0.395864,0.328454 -0.66857,0.49268 -0.275639,0.158362 -0.521954,0.275666 -0.738946,0.351914 v -0.680367 c 0.398796,-0.17889 0.741878,-0.401769 1.032178,-0.668637 0.296165,-0.263935 0.50436,-0.519073 0.621653,-0.762481 h 0.457443 z m 3.838412,0 h -0.703758 v -4.48104 c -0.173007,0.164227 -0.395863,0.328454 -0.66857,0.49268 -0.275638,0.158362 -0.521953,0.275666 -0.738945,0.351914 v -0.680367 c 0.398796,-0.17889 0.741878,-0.401769 1.032178,-0.668637 0.296165,-0.263935 0.50436,-0.519073 0.621653,-0.762481 h 0.457442 z m -4.319314,12.240747 h -0.703757 v -4.48104 c -0.173007,0.164227 -0.395864,0.328453 -0.66857,0.49268 -0.275639,0.158361 -0.521954,0.275666 -0.738946,0.351914 V 45.12437 c 0.398796,-0.17889 0.741878,-0.401769 1.032178,-0.668637 0.296165,-0.263936 0.50436,-0.519074 0.621653,-0.762481 h 0.457442 z M 33.3367,46.614139 c 0,-0.671569 0.07038,-1.214103 0.211128,-1.630535 0.140751,-0.413499 0.346014,-0.730222 0.621652,-0.950168 0.272706,-0.225812 0.615788,-0.340184 1.032178,-0.340184 0.310827,0 0.580601,0.06452 0.809322,0.187688 0.234586,0.117304 0.425187,0.293261 0.574736,0.527871 0.155413,0.234609 0.275638,0.522006 0.363608,0.856324 0.08504,0.337251 0.129022,0.785942 0.129022,1.349004 0,0.674502 -0.07038,1.217037 -0.211127,1.630536 -0.140752,0.416432 -0.348947,0.736087 -0.621653,0.961898 -0.275639,0.219947 -0.621653,0.328454 -1.043908,0.328454 -0.548344,0 -0.979396,-0.193553 -1.290222,-0.586524 C 33.527301,48.473419 33.3367,47.693343 33.3367,46.614139 Z m 0.727217,0 c 0,0.938438 0.108496,1.566018 0.32842,1.876876 0.216992,0.31379 0.486766,0.469219 0.809321,0.469219 0.328421,0 0.601127,-0.155429 0.821051,-0.469219 0.216992,-0.310858 0.328421,-0.938438 0.328421,-1.876876 0,-0.938437 -0.111429,-1.563085 -0.328421,-1.876875 -0.219924,-0.310857 -0.49263,-0.469219 -0.821051,-0.469219 -0.322555,0 -0.5806,0.137833 -0.774133,0.410567 -0.243383,0.351914 -0.363608,0.99709 -0.363608,1.935527 z m -0.750675,13.979789 0.680299,-0.05865 c 0.05278,0.31379 0.16421,0.545467 0.32842,0.692098 0.16421,0.140765 0.369473,0.211148 0.621653,0.211148 0.211127,0 0.398796,-0.04692 0.563006,-0.140765 0.16421,-0.09971 0.296165,-0.23461 0.398796,-0.398836 0.108496,-0.170092 0.199398,-0.392971 0.269774,-0.668637 0.07038,-0.281532 0.105564,-0.568928 0.105564,-0.868055 0,-0.02933 -0.0059,-0.07625 -0.01173,-0.140766 -0.140751,0.228744 -0.334284,0.410567 -0.574735,0.551332 -0.243383,0.134901 -0.50436,0.199418 -0.785863,0.199418 -0.477969,0 -0.879697,-0.167159 -1.208118,-0.50441 -0.32842,-0.343116 -0.49263,-0.797672 -0.49263,-1.360735 0,-0.586523 0.170075,-1.055742 0.516089,-1.407656 0.343082,-0.351914 0.774134,-0.527871 1.290223,-0.527871 0.36654,0 0.703758,0.102641 1.008719,0.304992 0.310827,0.196485 0.545413,0.480949 0.703758,0.856324 0.16421,0.36951 0.246315,0.903247 0.246315,1.607075 0,0.727289 -0.07917,1.31088 -0.234586,1.74784 -0.158345,0.431095 -0.395863,0.759548 -0.715487,0.98536 -0.313758,0.228744 -0.680299,0.340183 -1.102554,0.340183 -0.445713,0 -0.809321,-0.120237 -1.090824,-0.363644 C 33.547828,61.4004 33.37482,61.048486 33.313242,60.59393 Z m 2.885407,-2.522051 c 0,-0.404701 -0.111429,-0.727289 -0.328421,-0.961899 -0.211127,-0.240474 -0.469171,-0.363644 -0.774133,-0.363644 -0.313759,0 -0.586465,0.129035 -0.821051,0.387105 -0.228721,0.258071 -0.34015,0.592389 -0.34015,0.99709 0,0.360712 0.108496,0.656907 0.328421,0.891516 0.216992,0.228744 0.486766,0.340184 0.809321,0.340184 0.328421,0 0.598194,-0.11144 0.809322,-0.340184 0.211127,-0.234609 0.316691,-0.551332 0.316691,-0.950168 z m -1.900146,12.979766 c -0.299097,-0.09971 -0.516089,-0.249272 -0.656841,-0.445758 -0.140752,-0.20235 -0.211127,-0.439892 -0.211127,-0.715558 0,-0.422297 0.146616,-0.774211 0.445713,-1.055743 0.304962,-0.281531 0.703758,-0.422297 1.196388,-0.422297 0.498495,0 0.903156,0.146631 1.208118,0.434028 0.304962,0.290329 0.457442,0.642243 0.457442,1.055742 0,0.266868 -0.07037,0.501478 -0.211127,0.703828 -0.134887,0.196486 -0.346014,0.346049 -0.633382,0.445758 0.351879,0.117305 0.615788,0.304993 0.797592,0.563063 0.187669,0.252205 0.281503,0.551332 0.281503,0.903246 0,0.49268 -0.173007,0.909112 -0.516089,1.24343 -0.346014,0.328453 -0.803457,0.49268 -1.372327,0.49268 -0.563007,0 -1.017517,-0.164227 -1.360599,-0.49268 -0.346014,-0.334318 -0.516089,-0.753683 -0.516089,-1.25516 0,-0.375375 0.09383,-0.686233 0.281503,-0.938438 0.187669,-0.249272 0.457443,-0.422297 0.809322,-0.516141 z m -0.140752,-1.184777 c 0,0.266868 0.08504,0.486814 0.258045,0.656906 0.170074,0.173025 0.398796,0.25807 0.680299,0.25807 0.263909,0 0.483833,-0.08211 0.65684,-0.246339 0.178872,-0.170092 0.269774,-0.381241 0.269774,-0.633446 0,-0.25807 -0.0909,-0.472151 -0.269774,-0.645176 -0.181804,-0.178889 -0.40466,-0.269801 -0.668569,-0.269801 -0.266842,0 -0.489699,0.08798 -0.66857,0.258071 -0.173008,0.173024 -0.258045,0.38124 -0.258045,0.621715 z m -0.234586,2.639356 c 0,0.205283 0.04692,0.398836 0.140752,0.586523 0.0997,0.187688 0.246315,0.334319 0.433984,0.434028 0.187668,0.102641 0.387066,0.152496 0.598194,0.152496 0.334285,0 0.612856,-0.105574 0.83278,-0.316723 0.216992,-0.217014 0.32842,-0.495612 0.32842,-0.832863 0,-0.334319 -0.11436,-0.612917 -0.340149,-0.832864 -0.228722,-0.225811 -0.510225,-0.340183 -0.84451,-0.340183 -0.32842,0 -0.604059,0.111439 -0.821051,0.328453 -0.219924,0.219946 -0.32842,0.49268 -0.32842,0.821133 z m 0,0"
         style="fill:#231f20;fill-opacity:1;fill-rule:nonzero;stroke:none"
         aria-label="1&#10;2&#10;3&#10;4&#10;5&#10;6&#10;7&#10;14&#10;13&#10;12&#10;11&#10;10&#10;9&#10;8"
         transform="matrix(1.3321344,0,0,1.3320011,562.04416,183.47242)"
         clip-path="url(#clipPath45-4)"
         id="path60" />
      <path
         d="M 3.3550656,0.00112918 H 2.5574734 V -5.0429734 c -0.1876688,0.1876875 -0.4398487,0.3724425 -0.750675,0.5513321 -0.3049617,0.1818224 -0.5806002,0.3167228 -0.82105082,0.4105665 V -4.8435554 C 1.4226639,-5.0547039 1.8067984,-5.306909 2.1352187,-5.606036 2.4695037,-5.9022304 2.7040896,-6.1866943 2.8389765,-6.4623604 h 0.5160891 z m 1.6362369,0 2.4748817,-6.44002868 H 8.3810693 L 11.020161,0.00112918 H 10.04663 L 9.2959545,-1.946129 H 6.5982162 L 5.8944584,0.00112918 Z M 6.8445314,-2.6382268 h 2.1816493 l -0.66857,-1.7947621 C 8.152348,-4.9725906 7.9998672,-5.4124832 7.9001682,-5.7585321 7.8209954,-5.3508983 7.7066348,-4.9403318 7.5600185,-4.5268327 Z M 3.3550656,12.719892 H 2.5574734 V 7.6757899 C 2.3698046,7.8634774 2.1176247,8.0482324 1.8067984,8.227122 1.5018367,8.4089443 1.2261982,8.5438448 0.98574758,8.6376885 V 7.8752079 C 1.4226639,7.6640594 1.8067984,7.4118543 2.1352187,7.1127273 2.4695037,6.8165329 2.7040896,6.532069 2.8389765,6.2564029 h 0.5160891 z m 2.3048068,0 V 6.2798638 h 2.4162352 c 0.4926305,0 0.8855619,0.06745 1.184659,0.199418 0.2961648,0.1261026 0.5278184,0.3255206 0.6920285,0.5982541 0.1700749,0.275666 0.2580449,0.5571973 0.2580449,0.8445939 0,0.2815313 -0.07624,0.5454669 -0.222857,0.7859415 C 9.8384345,8.9514786 9.6126455,9.147964 9.3076838,9.2945949 9.6976829,9.4060344 9.9997123,9.5995872 10.21084,9.8811185 c 0.211127,0.2756665 0.316691,0.5982535 0.316691,0.9736295 0,0.299127 -0.06744,0.580658 -0.199398,0.844593 -0.12609,0.258071 -0.281503,0.457489 -0.4691722,0.598255 -0.1876688,0.140765 -0.4222547,0.246339 -0.7037579,0.316722 -0.2815031,0.07038 -0.6275173,0.105574 -1.0321781,0.105574 z M 6.5161111,8.9896027 h 1.3957864 c 0.3753375,0 0.6451113,-0.026394 0.8093215,-0.082113 C 8.9382109,8.8459044 9.1024211,8.7403301 9.2138494,8.5907666 9.3223454,8.4441358 9.3780596,8.2564482 9.3780596,8.027704 9.3780596,7.8165555 9.3223454,7.628868 9.2138494,7.4646414 9.1112181,7.3004148 8.9675342,7.191908 8.7798654,7.1361882 8.5921967,7.0746032 8.2667087,7.0423445 7.8063338,7.0423445 H 6.5161111 Z m 0,2.9678093 h 1.6069137 c 0.2727062,0 0.4633072,-0.0059 0.5747356,-0.02346 0.1935334,-0.03812 0.3577435,-0.09678 0.4926304,-0.175957 0.1319546,-0.08505 0.2375183,-0.205283 0.316691,-0.363645 0.085038,-0.155429 0.1290223,-0.334318 0.1290223,-0.539601 0,-0.240475 -0.064511,-0.448691 -0.1876687,-0.621715 C 9.3311424,10.054143 9.1610676,9.9280403 8.9440756,9.8576575 8.7241513,9.7814095 8.4103926,9.7403528 8.0057318,9.7403528 H 6.5161111 Z M 3.3550656,25.201114 H 2.5574734 V 20.157011 C 2.3698046,20.344699 2.1176247,20.529454 1.8067984,20.708343 1.5018367,20.890166 1.2261982,21.025066 0.98574758,21.11891 V 20.356429 C 1.4226639,20.145281 1.8067984,19.893076 2.1352187,19.593949 2.4695037,19.297754 2.7040896,19.01329 2.8389765,18.737624 h 0.5160891 z m 4.1580358,0 v -2.7332 l -2.486611,-3.706829 h 1.0439074 l 1.2667641,1.935528 c 0.2345859,0.36951 0.4515779,0.733154 0.6568406,1.090934 0.1876688,-0.334319 0.4222547,-0.715559 0.7037579,-1.137856 L 9.9410658,18.761085 H 10.938056 L 8.36934,22.467914 v 2.7332 z M 4.5279953,36.916922 v 0.76248 H 0.27026047 c -0.008797,-0.187687 0.0234586,-0.36951 0.0938344,-0.551332 0.108496,-0.287396 0.28150313,-0.574793 0.51608907,-0.856324 0.24045056,-0.281531 0.58939716,-0.604119 1.04390736,-0.973629 0.6949609,-0.568928 1.1641328,-1.023484 1.4075157,-1.360735 0.2492475,-0.334318 0.3753375,-0.651041 0.3753375,-0.950168 0,-0.310858 -0.1143607,-0.574793 -0.3401496,-0.785942 -0.2199243,-0.217013 -0.5102244,-0.328453 -0.867968,-0.328453 -0.3841345,0 -0.6890962,0.114372 -0.9148852,0.340184 -0.2287213,0.228744 -0.3460142,0.545467 -0.3518789,0.950168 l -0.80932144,-0.08211 c 0.0527818,-0.609985 0.26097686,-1.070406 0.62165274,-1.384196 0.3665405,-0.319655 0.8562387,-0.480949 1.4661621,-0.480949 0.6157881,0 1.1054862,0.173024 1.4661621,0.51614 0.3577436,0.337252 0.5395477,0.759548 0.5395477,1.266891 0,0.258071 -0.055714,0.513208 -0.1642102,0.762481 -0.1026313,0.252205 -0.2756385,0.513208 -0.516089,0.785942 -0.243383,0.275666 -0.650976,0.653973 -1.2198469,1.137855 -0.4691719,0.398836 -0.7741336,0.668637 -0.9148852,0.809403 -0.1348869,0.140765 -0.2433829,0.281531 -0.3284203,0.422297 z m 0.4633072,0.76248 2.4748817,-6.440028 h 0.9148851 l 2.6390917,6.440028 H 10.04663 L 9.2959545,35.732144 H 6.5982162 l -0.7037578,1.947258 z m 1.8532289,-2.639356 h 2.1816493 l -0.66857,-1.794762 C 8.152348,32.705683 7.9998672,32.26579 7.9001682,31.919741 7.8209954,32.327375 7.7066348,32.737941 7.5600185,33.15144 Z M 4.5279953,49.398143 v 0.762481 H 0.27026047 c -0.008797,-0.187688 0.0234586,-0.36951 0.0938344,-0.551333 C 0.47259087,49.321895 0.645598,49.034498 0.88018394,48.752967 1.1206345,48.471436 1.4695811,48.148848 1.9240913,47.779338 2.6190522,47.21041 3.0882241,46.755854 3.331607,46.418603 c 0.2492475,-0.334318 0.3753375,-0.651041 0.3753375,-0.950168 0,-0.310857 -0.1143607,-0.574793 -0.3401496,-0.785941 C 3.1468706,44.46548 2.8565705,44.35404 2.4988269,44.35404 c -0.3841345,0 -0.6890962,0.114372 -0.9148852,0.340184 -0.2287213,0.228744 -0.3460142,0.545467 -0.3518789,0.950168 l -0.80932147,-0.08211 c 0.0527818,-0.609985 0.26097686,-1.070406 0.62165277,-1.384196 0.3665405,-0.319655 0.8562387,-0.480949 1.4661621,-0.480949 0.6157881,0 1.1054862,0.173024 1.4661621,0.516141 0.3577436,0.337251 0.5395477,0.759548 0.5395477,1.266891 0,0.25807 -0.055714,0.513208 -0.1642102,0.76248 -0.1026313,0.252205 -0.2756385,0.513208 -0.516089,0.785942 -0.243383,0.275666 -0.650976,0.653974 -1.2198469,1.137855 -0.4691719,0.398834 -0.7741336,0.668634 -0.9148852,0.8094 -0.1348869,0.140766 -0.2433829,0.281531 -0.3284203,0.422297 z m 1.1318771,0.762481 v -6.440029 h 2.4162352 c 0.4926305,0 0.8855619,0.06745 1.184659,0.199418 0.2961648,0.126103 0.5278184,0.325521 0.6920285,0.598254 0.1700749,0.275666 0.2580449,0.557197 0.2580449,0.844594 0,0.281531 -0.07624,0.545467 -0.222857,0.785941 -0.1495485,0.243408 -0.3753375,0.439893 -0.6802992,0.586524 0.3899991,0.11144 0.6920285,0.304992 0.9031562,0.586524 0.211127,0.275666 0.316691,0.598254 0.316691,0.973629 0,0.299127 -0.06744,0.580658 -0.199398,0.844594 -0.12609,0.25807 -0.281503,0.457488 -0.4691722,0.598254 -0.1876688,0.140765 -0.4222547,0.24634 -0.7037579,0.316722 -0.2815031,0.07038 -0.6275173,0.105575 -1.0321781,0.105575 z m 0.8562387,-3.73029 h 1.3957864 c 0.3753375,0 0.6451113,-0.02639 0.8093215,-0.08211 0.2169919,-0.06158 0.3812021,-0.167159 0.4926304,-0.316722 0.108496,-0.146631 0.1642102,-0.334319 0.1642102,-0.563063 0,-0.211148 -0.055714,-0.398836 -0.1642102,-0.563062 C 9.1112181,44.741146 8.9675342,44.632639 8.7798654,44.576919 8.5921967,44.515334 8.2667087,44.483076 7.8063338,44.483076 H 6.5161111 Z m 0,2.967809 h 1.6069137 c 0.2727062,0 0.4633072,-0.0059 0.5747356,-0.02346 0.1935334,-0.03812 0.3577435,-0.09678 0.4926304,-0.175957 0.1319546,-0.08505 0.2375183,-0.205283 0.316691,-0.363645 0.085038,-0.155428 0.1290223,-0.334318 0.1290223,-0.539601 0,-0.240475 -0.064511,-0.448691 -0.1876687,-0.621715 C 9.3311424,47.494874 9.1610676,47.368771 8.9440756,47.298389 8.7241513,47.222141 8.4103926,47.181084 8.0057318,47.181084 H 6.5161111 Z M 4.5279953,62.116906 v 0.762481 H 0.27026047 c -0.008797,-0.187688 0.0234586,-0.36951 0.0938344,-0.551332 C 0.47259087,62.040658 0.645598,61.753262 0.88018394,61.47173 1.1206345,61.190199 1.4695811,60.867611 1.9240913,60.498101 2.6190522,59.929173 3.0882241,59.474618 3.331607,59.137367 c 0.2492475,-0.334319 0.3753375,-0.651042 0.3753375,-0.950169 0,-0.310857 -0.1143607,-0.574793 -0.3401496,-0.785941 -0.2199243,-0.217014 -0.5102244,-0.328453 -0.867968,-0.328453 -0.3841345,0 -0.6890962,0.114372 -0.9148852,0.340183 -0.2287213,0.228745 -0.3460142,0.545467 -0.3518789,0.950168 L 0.42274136,58.281045 C 0.47552316,57.671061 0.68371822,57.21064 1.0443941,56.89685 1.4109346,56.577194 1.9006328,56.4159 2.5105562,56.4159 c 0.6157881,0 1.1054862,0.173025 1.4661621,0.516141 0.3577436,0.337251 0.5395477,0.759548 0.5395477,1.266891 0,0.25807 -0.055714,0.513208 -0.1642102,0.762481 -0.1026313,0.252205 -0.2756385,0.513208 -0.516089,0.785941 -0.243383,0.275666 -0.650976,0.653974 -1.2198469,1.137856 -0.4691719,0.398836 -0.7741336,0.668637 -0.9148852,0.809402 -0.1348869,0.140766 -0.2433829,0.281532 -0.3284203,0.422297 z m 2.9851061,0.762481 v -2.7332 l -2.486611,-3.706829 h 1.0439074 l 1.2667641,1.935528 c 0.2345859,0.36951 0.4515779,0.733154 0.6568406,1.090934 0.1876688,-0.334319 0.4222547,-0.715559 0.7037579,-1.137856 L 9.9410658,56.439358 H 10.938056 L 8.36934,60.146187 v 2.7332 z m -12.6852347,9.95917 v -0.762481 h 2.7329262 v 2.393016 c -0.4222547,0.328454 -0.8562387,0.580659 -1.301952,0.75075 -0.4457133,0.164227 -0.9031559,0.24634 -1.3723278,0.24634 -0.633382,0 -1.2081175,-0.131967 -1.7242066,-0.398836 C -7.3537826,74.794613 -7.746714,74.404575 -8.0106232,73.894299 -8.2686677,73.378159 -8.39769,72.803365 -8.39769,72.16992 c 0,-0.624648 0.1290223,-1.208239 0.3870668,-1.74784 0.2639092,-0.545467 0.6451113,-0.950168 1.1377418,-1.208239 0.4926305,-0.263935 1.0585691,-0.398836 1.7007481,-0.398836 0.4603749,0 0.8796972,0.07625 1.2550347,0.222879 0.3812022,0.149564 0.6802993,0.360712 0.8914266,0.633446 0.2111274,0.266868 0.3694729,0.618782 0.4809012,1.055742 l -0.7624043,0.199418 c -0.093834,-0.319655 -0.216992,-0.574793 -0.3636082,-0.762481 -0.1407516,-0.187687 -0.3460143,-0.334318 -0.6099235,-0.445757 -0.2668415,-0.117305 -0.5630062,-0.175958 -0.8914265,-0.175958 -0.3929315,0 -0.7272164,0.05865 -1.0087196,0.175958 -0.2815031,0.117304 -0.5131567,0.275666 -0.6920285,0.469218 -0.1730071,0.196486 -0.3049617,0.407634 -0.3987961,0.633446 -0.1642102,0.398836 -0.2463152,0.832863 -0.2463152,1.302082 0,0.571861 0.096767,1.05281 0.2932324,1.442848 0.1935334,0.384173 0.4809012,0.668637 0.8562387,0.856324 0.3812021,0.187688 0.7858629,0.281532 1.2081176,0.281532 0.3665405,0 0.7272164,-0.07038 1.0790953,-0.211149 0.3518789,-0.146631 0.6216527,-0.299127 0.8093215,-0.457488 v -1.196508 z m 3.9732993,2.522051 v -6.440029 h 0.87969729 l 3.37803751,5.055834 v -5.055834 h 0.8210508 v 6.440029 H 3.0002543 l -3.37803749,-5.055833 v 5.055833 z m 6.5097599,0 V 68.920579 H 7.527763 c 0.4984951,0 0.8826296,0.03226 1.1494711,0.09384 0.3665405,0.08798 0.6832315,0.240475 0.950073,0.457489 0.334285,0.290329 0.5864649,0.656906 0.7506749,1.102664 0.170075,0.445758 0.258045,0.956033 0.258045,1.524961 0,0.49268 -0.05865,0.932573 -0.17594,1.313813 -0.111428,0.375375 -0.255112,0.689165 -0.433984,0.938438 -0.1818039,0.243407 -0.3753373,0.434027 -0.5864646,0.574793 -0.2111274,0.140765 -0.4691719,0.252205 -0.7741336,0.328453 -0.2990971,0.07038 -0.642179,0.105574 -1.0321781,0.105574 z m 0.8562386,-0.762481 h 1.3723278 c 0.4222547,0 0.7536073,-0.03812 0.9969902,-0.117304 0.2404506,-0.07625 0.4369163,-0.187688 0.5864649,-0.328453 0.1935334,-0.202351 0.3460142,-0.472152 0.4574426,-0.809403 0.1172929,-0.343116 0.1759394,-0.762481 0.1759394,-1.25516 0,-0.67157 -0.1114283,-1.187711 -0.3284203,-1.548423 C 9.2079848,70.181605 8.9382109,69.938198 8.6185876,69.812095 8.3898663,69.727049 8.0233258,69.68306 7.5160337,69.68306 H 6.1671645 Z M 70.69296,0.00112918 68.194619,-6.4388995 h 0.926615 l 1.677289,4.680458 c 0.131955,0.3753751 0.246316,0.7272892 0.34015,1.05574241 0.09383,-0.35191411 0.205263,-0.70382831 0.34015,-1.05574241 l 1.735935,-4.680458 h 0.879698 l -2.521799,6.44002868 z m 0,0"
         style="fill:#231f20;fill-opacity:1;fill-rule:nonzero;stroke:none"
         aria-label="1A&#10;1B&#10;1Y&#10;2A&#10;2B&#10;2Y&#10;GND&#10;V"
         transform="matrix(1.3321344,0,0,1.3320011,533.90951,184.11178)"
         clip-path="url(#clipPath46-5)"
         id="path61" />
      <path
         d="m 4.2332631,-1.8074313 0.6802992,0.175957 C 4.7728107,-1.0742769 4.5147662,-0.64904733 4.1394287,-0.35285293 3.7699559,-0.06252377 3.3183779,0.0811745 2.7788303,0.0811745 c -0.5571416,0 -1.0087196,-0.10850686 -1.3605985,-0.32845319 C 1.0722175,-0.47309026 0.81124069,-0.80154345 0.63236891,-1.2326383 0.45056481,-1.6608005 0.36259508,-2.1241541 0.36259508,-2.6168339 c 0,-0.5396016 0.099699,-1.0088205 0.30496172,-1.4076565 0.20233037,-0.398836 0.4926305,-0.697963 0.867968,-0.9032463 0.3812021,-0.2111484 0.8005245,-0.3167227 1.2550348,-0.3167227 0.516089,0 0.950073,0.1349004 1.3019519,0.398836 0.3518789,0.2580704 0.5981942,0.6275802 0.7389457,1.1026643 L 4.151158,-3.590463 C 4.033865,-3.9570402 3.8608579,-4.226841 3.6350689,-4.3998655 3.4063476,-4.5699573 3.1219122,-4.6579358 2.7788303,-4.6579358 c -0.3987961,0 -0.7330811,0.093844 -0.9969903,0.2815313 -0.2668415,0.1876875 -0.4545102,0.4428253 -0.5630062,0.7624806 -0.1026314,0.322588 -0.1524809,0.6539738 -0.1524809,0.99709 0,0.4398927 0.061579,0.821133 0.1876687,1.1495862 0.1231577,0.322588 0.3196234,0.56306263 0.5864649,0.72728922 0.2727062,0.1642266 0.5659386,0.2463399 0.8796973,0.2463399 0.3812021,0 0.7066901,-0.10850686 0.9735316,-0.32845319 C 3.9576246,-1.0478833 4.1394287,-1.3763365 4.2332631,-1.8074313 Z m 5.281116,0 0.6802989,0.175957 C 10.053927,-1.0742769 9.7958822,-0.64904733 9.4205447,-0.35285293 9.0510718,-0.06252377 8.5994939,0.0811745 8.0599462,0.0811745 c -0.5571416,0 -1.0087195,-0.10850686 -1.3605984,-0.32845319 C 6.3533335,-0.47309026 6.0923567,-0.80154345 5.9134849,-1.2326383 5.7316808,-1.6608005 5.643711,-2.1241541 5.643711,-2.6168339 c 0,-0.5396016 0.099699,-1.0088205 0.3049618,-1.4076565 0.2023303,-0.398836 0.4926304,-0.697963 0.8679679,-0.9032463 0.3812022,-0.2111484 0.8005246,-0.3167227 1.2550348,-0.3167227 0.5160891,0 0.9500731,0.1349004 1.301952,0.398836 0.3518789,0.2580704 0.5981941,0.6275802 0.7389455,1.1026643 L 9.432274,-3.590463 C 9.314981,-3.9570402 9.1419739,-4.226841 8.9161849,-4.3998655 8.6874636,-4.5699573 8.4030282,-4.6579358 8.0599462,-4.6579358 c -0.3987961,0 -0.733081,0.093844 -0.9969902,0.2815313 -0.2668415,0.1876875 -0.4545103,0.4428253 -0.5630063,0.7624806 -0.1026313,0.322588 -0.1524808,0.6539738 -0.1524808,0.99709 0,0.4398927 0.061579,0.821133 0.1876687,1.1495862 0.1231576,0.322588 0.3196234,0.56306263 0.5864649,0.72728922 0.2727061,0.1642266 0.5659385,0.2463399 0.8796972,0.2463399 0.3812022,0 0.7066902,-0.10850686 0.9735317,-0.32845319 C 9.2387406,-1.0478833 9.4205447,-1.3763365 9.5143791,-1.8074313 Z m 0,0"
         style="fill:#231f20;fill-opacity:1;fill-rule:nonzero;stroke:none"
         aria-label="CC"
         transform="matrix(1.3321344,0,0,1.3320011,632.70057,186.66922)"
         clip-path="url(#clipPath47-2)"
         id="path62" />
      <path
         d="M 2.9083171,-1.0753539e-4 V -1.5367992 H 0.11674443 V -2.2640885 L 3.0490687,-6.4401362 H 3.69418 v 4.1760477 h 0.867968 v 0.7272893 H 3.69418 v 1.53669166461 z m 0,-2.26398096461 V -5.1732453 L 0.89087803,-2.2640885 Z M 5.6617696,-1.0753539e-4 V -6.4401362 h 2.4162352 c 0.4926304,0 0.8855619,0.06745 1.184659,0.199418 0.2961647,0.1261026 0.5278183,0.3255206 0.6920285,0.5982541 0.1700747,0.275666 0.2580447,0.5571973 0.2580447,0.8445939 0,0.2815313 -0.07624,0.5454669 -0.2228568,0.7859415 -0.1495486,0.2434073 -0.3753375,0.4398927 -0.6802993,0.5865236 0.3899992,0.1114395 0.6920281,0.3049923 0.9031561,0.5865236 0.211127,0.275666 0.316691,0.598254 0.316691,0.9736291 0,0.299127 -0.06744,0.5806583 -0.199398,0.8445939 -0.12609,0.25807034 -0.281503,0.45748835 -0.4691721,0.59825401 C 9.6731892,-0.28163884 9.4386032,-0.1760646 9.1571001,-0.10568178 8.875597,-0.03529895 8.5295827,-1.0753539e-4 8.124922,-1.0753539e-4 Z M 6.5180083,-3.7303973 h 1.3957863 c 0.3753375,0 0.6451113,-0.026394 0.8093215,-0.082113 0.216992,-0.061585 0.3812021,-0.1671593 0.4926305,-0.3167228 0.108496,-0.1466308 0.1642101,-0.3343184 0.1642101,-0.5630626 0,-0.2111485 -0.055714,-0.398836 -0.1642101,-0.5630626 C 9.1131152,-5.4195852 8.9694313,-5.528092 8.7817626,-5.5838118 8.5940938,-5.6453968 8.2686058,-5.6776555 7.8082309,-5.6776555 H 6.5180083 Z m 0,2.96780914 H 8.124922 c 0.2727061,0 0.4633072,-0.005865 0.5747355,-0.0234609 0.1935334,-0.038124 0.3577436,-0.0967764 0.4926305,-0.17595707 0.1319546,-0.0850459 0.2375182,-0.20528327 0.316691,-0.36364467 0.085037,-0.1554287 0.1290223,-0.3343184 0.1290223,-0.5396016 0,-0.2404747 -0.064511,-0.4486906 -0.1876688,-0.621715 C 9.3330395,-2.6658571 9.1629647,-2.7919597 8.9459727,-2.8623425 8.7260484,-2.9385905 8.4122897,-2.9796472 8.007629,-2.9796472 H 6.5180083 Z M 2.9083171,12.481114 V 10.944422 H 0.11674443 V 10.217133 L 3.0490687,6.0410851 H 3.69418 v 4.1760479 h 0.867968 v 0.727289 H 3.69418 v 1.536692 z m 0,-2.263981 V 7.307976 L 0.89087803,10.217133 Z M 4.9931997,12.481114 7.4680813,6.0410851 H 8.3829665 L 11.022058,12.481114 H 10.048527 L 9.2978517,10.533856 H 6.6001133 L 5.8963555,12.481114 Z M 6.8464286,9.8417577 H 9.0280778 L 8.3595079,8.0469956 C 8.1542452,7.507394 8.0017643,7.0675013 7.9020653,6.7214524 7.8228926,7.1290863 7.7085319,7.5396528 7.5619157,7.9531519 Z M 2.9083171,24.959402 V 23.422711 H 0.11674443 v -0.72729 L 3.0490687,18.519374 H 3.69418 v 4.176047 h 0.867968 v 0.72729 H 3.69418 v 1.536691 z m 0,-2.263981 v -2.909156 l -2.01743907,2.909156 z m 4.6066814,2.263981 V 22.226203 L 5.0283875,18.519374 H 6.072295 l 1.2667641,1.935527 c 0.2345859,0.36951 0.4515779,0.733155 0.6568406,1.090934 0.1876687,-0.334318 0.4222547,-0.715558 0.7037578,-1.137855 L 9.942963,18.519374 h 0.99699 l -2.5687158,3.706829 v 2.733199 z M 0.37478896,35.739705 1.1723812,35.634131 c 0.085037,0.445758 0.2375182,0.771279 0.4574425,0.973629 0.216992,0.196486 0.4838335,0.293262 0.7975922,0.293262 0.3753375,0 0.6861639,-0.129035 0.9383438,-0.387106 0.2580445,-0.25807 0.3870668,-0.577725 0.3870668,-0.961898 0,-0.35778 -0.117293,-0.656907 -0.3518789,-0.891516 -0.234586,-0.234609 -0.5366153,-0.351914 -0.9031559,-0.351914 -0.1495485,0 -0.3372173,0.02933 -0.5630062,0.08211 L 2.0286195,33.6986 c 0.046917,0.0088 0.08797,0.01173 0.1290223,0.01173 0.334285,0 0.6363144,-0.08505 0.9031559,-0.258071 0.2639092,-0.178889 0.3987961,-0.451623 0.3987961,-0.821133 0,-0.287396 -0.099699,-0.527871 -0.2932325,-0.715558 -0.1964657,-0.193553 -0.4457132,-0.293262 -0.750675,-0.293262 -0.3137587,0 -0.5718032,0.09971 -0.7741336,0.293262 C 1.43629,32.112053 1.3043355,32.402382 1.2427566,32.783623 L 0.45689404,32.642861 c 0.0938344,-0.530804 0.31082637,-0.94137 0.65684066,-1.2317 0.3430819,-0.287396 0.7682689,-0.434027 1.2784933,-0.434027 0.351879,0 0.6744346,0.07625 0.9735317,0.222879 0.2961647,0.149563 0.5219537,0.357779 0.6802992,0.621715 0.1554132,0.25807 0.234586,0.533736 0.234586,0.821133 0,0.281531 -0.076241,0.536669 -0.2228567,0.762481 -0.1495485,0.228744 -0.3724052,0.410566 -0.6685699,0.551332 0.3812021,0.08798 0.6802992,0.269801 0.8914266,0.551332 0.2111273,0.275666 0.316691,0.618782 0.316691,1.032281 0,0.563063 -0.208195,1.04108 -0.6216528,1.431118 -0.407593,0.392971 -0.9236821,0.586523 -1.5482672,0.586523 -0.5718032,0 -1.0439074,-0.167159 -1.4192449,-0.50441 C 0.63869815,36.7192 0.4275708,36.279307 0.37478896,35.739705 Z m 5.28698064,1.700919 v -6.440029 h 2.4162352 c 0.4926304,0 0.8855619,0.06745 1.184659,0.199418 0.2961647,0.126103 0.5278183,0.325521 0.6920285,0.598254 0.1700747,0.275666 0.2580447,0.557197 0.2580447,0.844594 0,0.281531 -0.07624,0.545467 -0.2228568,0.785941 -0.1495486,0.243408 -0.3753375,0.439893 -0.6802993,0.586524 0.3899992,0.11144 0.6920281,0.304992 0.9031561,0.586524 0.211127,0.275666 0.316691,0.598254 0.316691,0.973629 0,0.299127 -0.06744,0.580658 -0.199398,0.844594 -0.12609,0.25807 -0.281503,0.457488 -0.4691721,0.598254 -0.1876687,0.140765 -0.4222547,0.24634 -0.7037578,0.316722 -0.2815031,0.07038 -0.6275174,0.105575 -1.0321781,0.105575 z m 0.8562387,-3.73029 h 1.3957863 c 0.3753375,0 0.6451113,-0.02639 0.8093215,-0.08211 0.216992,-0.06158 0.3812021,-0.167159 0.4926305,-0.316722 0.108496,-0.146631 0.1642101,-0.334319 0.1642101,-0.563063 0,-0.211148 -0.055714,-0.398836 -0.1642101,-0.563062 C 9.1131152,32.021146 8.9694313,31.912639 8.7817626,31.856919 8.5940938,31.795334 8.2686058,31.763076 7.8082309,31.763076 H 6.5180083 Z m 0,2.967809 H 8.124922 c 0.2727061,0 0.4633072,-0.0059 0.5747355,-0.02346 0.1935334,-0.03812 0.3577436,-0.09678 0.4926305,-0.175957 0.1319546,-0.08505 0.2375182,-0.205283 0.316691,-0.363645 0.085037,-0.155428 0.1290223,-0.334318 0.1290223,-0.539601 0,-0.240475 -0.064511,-0.448691 -0.1876688,-0.621715 C 9.3330395,34.774874 9.1629647,34.648771 8.9459727,34.578389 8.7260484,34.502141 8.4122897,34.461084 8.007629,34.461084 H 6.5180083 Z M 0.37478896,48.458469 1.1723812,48.352894 c 0.085037,0.445758 0.2375182,0.771279 0.4574425,0.973629 0.216992,0.196486 0.4838335,0.293262 0.7975922,0.293262 0.3753375,0 0.6861639,-0.129035 0.9383438,-0.387105 0.2580445,-0.258071 0.3870668,-0.577726 0.3870668,-0.961899 0,-0.357779 -0.117293,-0.656906 -0.3518789,-0.891516 -0.234586,-0.234609 -0.5366153,-0.351914 -0.9031559,-0.351914 -0.1495485,0 -0.3372173,0.02933 -0.5630062,0.08211 l 0.093834,-0.692097 c 0.046917,0.0088 0.08797,0.01173 0.1290223,0.01173 0.334285,0 0.6363144,-0.08505 0.9031559,-0.25807 0.2639092,-0.17889 0.3987961,-0.451623 0.3987961,-0.821133 0,-0.287397 -0.099699,-0.527871 -0.2932325,-0.715559 -0.1964657,-0.193553 -0.4457132,-0.293262 -0.750675,-0.293262 -0.3137587,0 -0.5718032,0.09971 -0.7741336,0.293262 C 1.4362903,44.83082 1.3043358,45.12115 1.2427569,45.50239 L 0.45689404,45.361624 c 0.0938344,-0.530804 0.31082637,-0.94137 0.65684066,-1.231699 0.3430819,-0.287397 0.7682689,-0.434028 1.2784933,-0.434028 0.351879,0 0.6744346,0.07625 0.9735317,0.222879 0.2961647,0.149564 0.5219537,0.35778 0.6802992,0.621715 0.1554132,0.258071 0.234586,0.533737 0.234586,0.821133 0,0.281531 -0.076241,0.536669 -0.2228567,0.762481 -0.1495485,0.228744 -0.3724052,0.410566 -0.6685699,0.551332 0.3812021,0.08798 0.6802992,0.269801 0.8914266,0.551332 0.2111273,0.275666 0.316691,0.618782 0.316691,1.032282 0,0.563062 -0.208195,1.041079 -0.6216528,1.431117 -0.407593,0.392971 -0.9236821,0.586524 -1.5482672,0.586524 -0.5718032,0 -1.0439074,-0.16716 -1.4192449,-0.504411 C 0.63869815,49.437963 0.4275708,48.99807 0.37478896,48.458469 Z m 4.61841074,1.700918 2.4748816,-6.440029 h 0.9148852 l 2.6390915,6.440029 H 10.048527 L 9.2978517,48.212129 H 6.6001133 L 5.8963555,50.159387 Z M 6.8464286,47.520031 H 9.0280778 L 8.3595079,45.725269 C 8.1542452,45.185667 8.0017643,44.745774 7.9020653,44.399726 c -0.079173,0.407633 -0.1935334,0.8182 -0.3401496,1.231699 z M 0.37478896,60.93969 1.1723812,60.834116 c 0.085037,0.445757 0.2375182,0.771278 0.4574425,0.973629 0.216992,0.196485 0.4838335,0.293261 0.7975922,0.293261 0.3753375,0 0.6861639,-0.129035 0.9383438,-0.387105 0.2580445,-0.25807 0.3870668,-0.577726 0.3870668,-0.961899 0,-0.357779 -0.117293,-0.656906 -0.3518789,-0.891516 -0.234586,-0.234609 -0.5366153,-0.351914 -0.9031559,-0.351914 -0.1495485,0 -0.3372173,0.02933 -0.5630062,0.08211 l 0.093834,-0.692098 c 0.046917,0.0088 0.08797,0.01173 0.1290223,0.01173 0.334285,0 0.6363144,-0.08505 0.9031559,-0.25807 0.2639092,-0.17889 0.3987961,-0.451623 0.3987961,-0.821133 0,-0.287397 -0.099699,-0.527871 -0.2932325,-0.715559 C 2.9698956,56.921999 2.7206481,56.82229 2.4156863,56.82229 2.1019276,56.82229 1.8438831,56.922 1.6415527,57.115552 1.43629,57.312038 1.3043355,57.602367 1.2427566,57.983607 L 0.45689404,57.842845 c 0.0938344,-0.530803 0.31082637,-0.94137 0.65684066,-1.231699 0.3430819,-0.287397 0.7682689,-0.434027 1.2784933,-0.434027 0.351879,0 0.6744346,0.07625 0.9735317,0.222878 0.2961647,0.149564 0.5219537,0.35778 0.6802992,0.621715 0.1554132,0.258071 0.234586,0.533737 0.234586,0.821133 0,0.281532 -0.076241,0.536669 -0.2228567,0.762481 -0.1495485,0.228744 -0.3724052,0.410567 -0.6685699,0.551332 0.3812021,0.08798 0.6802992,0.269801 0.8914266,0.551332 0.2111273,0.275666 0.316691,0.618783 0.316691,1.032282 0,0.563062 -0.208195,1.041079 -0.6216528,1.431117 -0.407593,0.392971 -0.9236821,0.586524 -1.5482672,0.586524 -0.5718032,0 -1.0439074,-0.167159 -1.4192449,-0.50441 C 0.63869815,61.919184 0.4275708,61.479291 0.37478896,60.93969 Z m 7.14020954,1.700918 v -2.7332 L 5.0283875,56.200579 H 6.072295 l 1.2667641,1.935528 c 0.2345859,0.36951 0.4515779,0.733155 0.6568406,1.090934 0.1876687,-0.334318 0.4222547,-0.715559 0.7037578,-1.137856 L 9.942963,56.200579 h 0.99699 l -2.5687158,3.706829 v 2.7332 z m 0,0"
         style="fill:#231f20;fill-opacity:1;fill-rule:nonzero;stroke:none"
         aria-label="4B&#10;4A&#10;4Y&#10;3B&#10;3A&#10;3Y"
         transform="matrix(1.3321344,0,0,1.3320011,624.70776,201.05483)"
         clip-path="url(#clipPath48-5)"
         id="path63" />
      <path
         d="m 114.336,5.33203 h 178 V 409.332 h -178 z"
         style="fill:none;stroke:#231f20;stroke-width:6;stroke-linecap:round;stroke-linejoin:round;stroke-miterlimit:10;stroke-dasharray:none;stroke-opacity:1"
         transform="matrix(0.319712,0,0,-0.31968,521.33333,295.46667)"
         clip-path="url(#clipPath49-6)"
         id="path64" />
      <path
         d="m 292.336,379.332 h 15 v -38 h -15 v -14 h 15 v -38 h -15 v -13 h 15 v -38 h -15 v -13 h 15 v -38 h -15"
         style="fill:none;stroke:#231f20;stroke-width:4;stroke-linecap:round;stroke-linejoin:round;stroke-miterlimit:10;stroke-dasharray:none;stroke-opacity:1"
         transform="matrix(0.319712,0,0,-0.31968,521.33333,295.46667)"
         clip-path="url(#clipPath50-6)"
         id="path65" />
      <path
         d="M 292.336,187.332 Z"
         style="fill:none;stroke:#231f20;stroke-width:4;stroke-linecap:round;stroke-linejoin:round;stroke-miterlimit:10;stroke-dasharray:none;stroke-opacity:1"
         transform="matrix(0.319712,0,0,-0.31968,521.33333,295.46667)"
         clip-path="url(#clipPath51-8)"
         id="path66" />
      <path
         d="m 292.336,187.332 v -13"
         style="fill:none;stroke:#231f20;stroke-width:4;stroke-linecap:round;stroke-linejoin:round;stroke-miterlimit:10;stroke-dasharray:none;stroke-opacity:1"
         transform="matrix(0.319712,0,0,-0.31968,521.33333,295.46667)"
         clip-path="url(#clipPath52-0)"
         id="path67" />
      <path
         d="m 292.336,174.332 h 15 v -39 h -15 v -13 h 15 v -38 h -15 v -13 h 15 v -39 h -15 v -12"
         style="fill:none;stroke:#231f20;stroke-width:4;stroke-linecap:round;stroke-linejoin:round;stroke-miterlimit:10;stroke-dasharray:none;stroke-opacity:1"
         transform="matrix(0.319712,0,0,-0.31968,521.33333,295.46667)"
         clip-path="url(#clipPath53-6)"
         id="path68" />
      <path
         d="M 114.336,379.332 H 99.3359 v -38 h 15.0001 v -14 H 99.3359 v -38 h 15.0001 v -13 H 99.3359 v -38 h 15.0001 v -13 H 99.3359 v -38 h 15.0001"
         style="fill:none;stroke:#231f20;stroke-width:4;stroke-linecap:round;stroke-linejoin:round;stroke-miterlimit:10;stroke-dasharray:none;stroke-opacity:1"
         transform="matrix(0.319712,0,0,-0.31968,521.33333,295.46667)"
         clip-path="url(#clipPath54-3)"
         id="path69" />
      <path
         d="M 114.336,187.332 Z"
         style="fill:none;stroke:#231f20;stroke-width:4;stroke-linecap:round;stroke-linejoin:round;stroke-miterlimit:10;stroke-dasharray:none;stroke-opacity:1"
         transform="matrix(0.319712,0,0,-0.31968,521.33333,295.46667)"
         clip-path="url(#clipPath55-9)"
         id="path70" />
      <path
         d="m 114.336,187.332 v -13"
         style="fill:none;stroke:#231f20;stroke-width:4;stroke-linecap:round;stroke-linejoin:round;stroke-miterlimit:10;stroke-dasharray:none;stroke-opacity:1"
         transform="matrix(0.319712,0,0,-0.31968,521.33333,295.46667)"
         clip-path="url(#clipPath56-4)"
         id="path71" />
      <path
         d="M 114.336,174.332 H 99.3359 v -39 h 15.0001 v -13 H 99.3359 v -38 h 15.0001 v -13 H 99.3359 v -39 h 15.0001 v -12"
         style="fill:none;stroke:#231f20;stroke-width:4;stroke-linecap:round;stroke-linejoin:round;stroke-miterlimit:10;stroke-dasharray:none;stroke-opacity:1"
         transform="matrix(0.319712,0,0,-0.31968,521.33333,295.46667)"
         clip-path="url(#clipPath57-2)"
         id="path72" />
    </g>
  </g>
</svg>
